<svg version="1.1" viewBox="0.0 0.0 541.3175853018373 193.45144356955382" fill="none" stroke="none" stroke-linecap="square" stroke-miterlimit="10" xmlns:xlink="http://www.w3.org/1999/xlink" xmlns="http://www.w3.org/2000/svg"><clipPath id="p.0"><path d="m0 0l541.31757 0l0 193.45145l-541.31757 0l0 -193.45145z" clip-rule="nonzero"/></clipPath><g clip-path="url(#p.0)"><path fill="#000000" fill-opacity="0.0" d="m0 0l541.31757 0l0 193.45145l-541.31757 0z" fill-rule="evenodd"/><path fill="#000000" fill-opacity="0.0" d="m0 26.96588l365.6378 0l0 61.543304l-365.6378 0z" fill-rule="evenodd"/><path fill="#000000" d="m15.71875 42.372753l0 -0.375l1.46875 0l0 3.4375l-1.46875 0l0 -1.53125q-0.9375 -0.4375 -1.75 -0.4375q-0.875 0 -1.46875 0.4375q-0.578125 0.4375 -0.578125 1.015625q0 0.515625 0.328125 0.78125q0.34375 0.265625 0.828125 0.359375q0.5 0.09375 1.34375 0.171875l0.625 0.0625q1.15625 0.15625 1.8125 0.75q0.65625 0.59375 0.65625 1.65625q0 0.84375 -0.484375 1.484375q-0.484375 0.640625 -1.3125 1.0q-0.8125 0.34375 -1.84375 0.34375q-0.5625 0 -1.078125 -0.125q-0.5 -0.125 -1.140625 -0.453125l0 0.578125l-1.46875 0l0 -3.34375l1.46875 0l0 1.21875q1.09375 0.65625 2.234375 0.65625q1.046875 0 1.609375 -0.34375q0.5625 -0.359375 0.5625 -1.015625q0 -0.5625 -0.453125 -0.8125q-0.4375 -0.265625 -1.5 -0.28125q-1.796875 -0.03125 -2.734375 -0.765625q-0.9375 -0.734375 -0.9375 -1.921875q0 -0.75 0.4375 -1.421875q0.4375 -0.6875 1.234375 -1.09375q0.796875 -0.40625 1.796875 -0.40625q1.0 0 1.8125 0.375zm11.350021 7.46875l0 1.484375l-6.96875 0l0 -1.484375l2.765625 0l0 -6.59375l-2.703125 0.546875l0 -1.453125l4.203125 -0.859375l0 8.359375l2.703125 0zm7.4437714 -3.640625q0 0.546875 -0.421875 0.9375q-0.421875 0.375 -1.046875 0.375q-0.453125 0 -0.8125 -0.1875q-0.34375 -0.1875 -0.546875 -0.484375q-0.1875 -0.3125 -0.1875 -0.625q0 -0.53125 0.4375 -0.9375q0.4375 -0.40625 1.078125 -0.40625q0.65625 0 1.078125 0.40625q0.421875 0.390625 0.421875 0.921875zm0 4.0q0 0.546875 -0.421875 0.9375q-0.421875 0.375 -1.046875 0.375q-0.453125 0 -0.8125 -0.1875q-0.34375 -0.1875 -0.546875 -0.484375q-0.1875 -0.3125 -0.1875 -0.625q0 -0.53125 0.4375 -0.9375q0.4375 -0.40625 1.078125 -0.40625q0.65625 0 1.078125 0.40625q0.421875 0.390625 0.421875 0.921875zm17.246918 -6.53125l-1.265625 0l0 2.203125l3.484375 0l0 -2.203125l-1.25 0l0 -1.5l3.9375 0l0 1.5l-1.21875 0l0 6.171875l1.21875 0l0 1.484375l-3.9375 0l0 -1.484375l1.25 0l0 -2.484375l-3.484375 0l0 2.484375l1.265625 0l0 1.484375l-3.953125 0l0 -1.484375l1.203125 0l0 -6.171875l-1.203125 0l0 -1.5l3.953125 0l0 1.5zm13.912521 3.78125q0 0.546875 -0.046875 1.0625l-6.09375 0q0.125 0.71875 0.765625 1.125q0.65625 0.40625 1.71875 0.40625q1.484375 0 3.25 -0.90625l0.671875 1.21875q-0.953125 0.5625 -1.96875 0.859375q-1.0 0.296875 -1.953125 0.296875q-1.1875 0 -2.09375 -0.46875q-0.890625 -0.46875 -1.390625 -1.296875q-0.484375 -0.828125 -0.484375 -1.859375q0 -1.109375 0.53125 -1.9375q0.546875 -0.84375 1.4375 -1.3125q0.90625 -0.46875 1.953125 -0.46875q1.015625 0 1.859375 0.4375q0.859375 0.421875 1.34375 1.171875q0.5 0.734375 0.5 1.671875zm-3.78125 -1.78125q-0.765625 0 -1.390625 0.359375q-0.625 0.34375 -0.859375 1.0l4.59375 0q-0.109375 -0.609375 -0.71875 -0.984375q-0.609375 -0.375 -1.625 -0.375zm13.818771 0.3125l-1.40625 0.21875q-0.046875 -0.328125 -0.15625 -0.4375q-0.09375 -0.125 -0.359375 -0.125q-0.90625 0 -2.875 1.65625l0 2.546875l2.921875 0l0 1.484375l-6.109375 0l0 -1.484375l1.703125 0l0 -3.96875l-1.71875 0l0 -1.484375l3.203125 0l0 1.109375q0.890625 -0.71875 1.5625 -1.03125q0.671875 -0.3125 1.3125 -0.3125q1.75 0 1.921875 1.828125zm5.6156464 -1.046875q0.3125 -0.359375 0.765625 -0.5625q0.46875 -0.203125 0.953125 -0.203125q0.9375 0 1.5 0.625q0.578125 0.625 0.578125 1.484375l0 3.5625l0.921875 0l0 1.484375l-2.390625 0l0 -5.078125q0 -0.203125 -0.1875 -0.390625q-0.171875 -0.1875 -0.484375 -0.1875q-0.28125 0 -0.5625 0.171875q-0.28125 0.15625 -0.515625 0.46875l0 3.53125l0.953125 0l0 1.484375l-2.4375 0l0 -4.875q0 -0.34375 -0.1875 -0.5625q-0.1875 -0.21875 -0.53125 -0.21875q-0.453125 0 -1.03125 0.515625l0 3.65625l1.25 0l0 1.484375l-3.953125 0l0 -1.484375l1.21875 0l0 -3.96875l-1.21875 0l0 -1.484375l2.703125 0l0 0.34375q0.21875 -0.265625 0.546875 -0.40625q0.34375 -0.15625 0.734375 -0.15625q0.890625 0 1.375 0.765625zm11.021896 -0.4375q0.6875 0.3125 0.96875 0.859375q0.28125 0.546875 0.28125 1.59375l0 2.890625l1.234375 0l0 1.484375l-2.671875 0l0 -0.75q-0.71875 0.5 -1.34375 0.71875q-0.609375 0.21875 -1.328125 0.21875q-0.8125 0 -1.453125 -0.328125q-0.625 -0.328125 -0.96875 -0.84375q-0.34375 -0.53125 -0.34375 -1.109375q0 -0.640625 0.390625 -1.21875q0.40625 -0.578125 1.203125 -0.9375q0.8125 -0.359375 1.984375 -0.359375q0.59375 0 1.859375 0.109375l0 -0.15625q0 -0.53125 -0.390625 -0.78125q-0.390625 -0.25 -1.1875 -0.25q-1.203125 0 -2.75 0.625l-0.578125 -1.28125q1.984375 -0.828125 3.40625 -0.828125q0.984375 0 1.6875 0.34375zm-2.890625 5.53125q1.375 0 2.703125 -1.234375l0 -0.484375l-0.40625 -0.03125q-0.125 -0.015625 -0.625 -0.046875q-0.5 -0.046875 -0.921875 -0.046875q-0.828125 0 -1.421875 0.28125q-0.578125 0.28125 -0.578125 0.765625q0 0.34375 0.359375 0.578125q0.375 0.21875 0.890625 0.21875zm13.959396 -3.59375l0 3.40625l1.203125 0l0 1.484375l-3.890625 0l0 -1.484375l1.21875 0l0 -3.140625q0 -0.59375 -0.28125 -0.828125q-0.265625 -0.234375 -0.890625 -0.234375q-0.53125 0 -1.171875 0.234375q-0.640625 0.234375 -1.09375 0.65625l0 3.3125l1.25 0l0 1.484375l-3.953125 0l0 -1.484375l1.21875 0l0 -3.96875l-1.25 0l0 -1.484375l2.734375 0l0 0.5q0.515625 -0.328125 1.140625 -0.515625q0.640625 -0.203125 1.265625 -0.203125q1.234375 0 1.859375 0.640625q0.640625 0.625 0.640625 1.625zm9.600021 0l0 3.40625l1.203125 0l0 1.484375l-3.890625 0l0 -1.484375l1.21875 0l0 -3.140625q0 -0.59375 -0.28125 -0.828125q-0.265625 -0.234375 -0.890625 -0.234375q-0.53125 0 -1.171875 0.234375q-0.640625 0.234375 -1.09375 0.65625l0 3.3125l1.25 0l0 1.484375l-3.953125 0l0 -1.484375l1.21875 0l0 -3.96875l-1.25 0l0 -1.484375l2.734375 0l0 0.5q0.515625 -0.328125 1.140625 -0.515625q0.640625 -0.203125 1.265625 -0.203125q1.234375 0 1.859375 0.640625q0.640625 0.625 0.640625 1.625zm16.778168 -3.0l-1.6875 0l0 -2.375l1.6875 0l0 2.375zm0 6.40625l2.625 0l0 1.484375l-6.78125 0l0 -1.484375l2.671875 0l0 -3.96875l-2.234375 0l0 -1.484375l3.71875 0l0 5.453125zm10.615646 -5.3125l0 -0.375l1.46875 0l0 2.78125l-1.46875 0l0 -0.890625q-0.390625 -0.1875 -0.90625 -0.296875q-0.5 -0.109375 -0.984375 -0.109375q-0.703125 0 -1.203125 0.203125q-0.5 0.203125 -0.5 0.546875q0 0.578125 1.4375 0.71875l2.015625 0.15625q0.828125 0.078125 1.375 0.625q0.546875 0.53125 0.546875 1.328125q0 0.671875 -0.4375 1.1875q-0.421875 0.515625 -1.15625 0.8125q-0.71875 0.296875 -1.609375 0.296875q-1.15625 0 -2.328125 -0.453125l0 0.453125l-1.46875 0l0 -3.0l1.46875 0l0 1.109375q1.109375 0.40625 2.25 0.40625q0.75 0 1.296875 -0.21875q0.546875 -0.234375 0.546875 -0.59375q0 -0.390625 -0.34375 -0.5q-0.34375 -0.109375 -1.203125 -0.15625q-0.828125 -0.03125 -1.25 -0.09375q-2.5625 -0.328125 -2.5625 -2.109375q0 -1.03125 0.859375 -1.609375q0.859375 -0.59375 2.140625 -0.59375q1.046875 0 2.015625 0.375zm16.590668 -0.140625l3.8125 0l0 1.484375l-3.8125 0l0 2.859375q0 0.71875 0.296875 1.015625q0.3125 0.296875 0.984375 0.296875q1.09375 0 3.21875 -0.953125l0.25 1.46875q-1.203125 0.53125 -2.0 0.75q-0.796875 0.203125 -1.484375 0.203125q-1.359375 0 -2.0625 -0.640625q-0.6875 -0.640625 -0.6875 -1.796875l0 -3.203125l-1.015625 0l0 -1.484375l1.015625 0l0 -2.140625l1.484375 0l0 2.140625zm8.928146 0.53125q0.703125 -0.40625 1.25 -0.578125q0.546875 -0.171875 1.125 -0.171875q1.171875 0 1.8125 0.65625q0.65625 0.640625 0.65625 1.921875l0 3.09375l1.234375 0l0 1.484375l-3.921875 0l0 -1.484375l1.21875 0l0 -3.1875q0 -0.484375 -0.265625 -0.75q-0.25 -0.265625 -0.75 -0.265625q-1.046875 0 -2.359375 0.9375l0 3.265625l1.203125 0l0 1.484375l-3.90625 0l0 -1.484375l1.234375 0l0 -6.96875l-1.234375 0l0 -1.484375l2.703125 0l0 3.53125zm14.943771 2.53125q0 0.546875 -0.046875 1.0625l-6.09375 0q0.125 0.71875 0.765625 1.125q0.65625 0.40625 1.71875 0.40625q1.484375 0 3.25 -0.90625l0.671875 1.21875q-0.953125 0.5625 -1.96875 0.859375q-1.0 0.296875 -1.953125 0.296875q-1.1875 0 -2.09375 -0.46875q-0.890625 -0.46875 -1.390625 -1.296875q-0.484375 -0.828125 -0.484375 -1.859375q0 -1.109375 0.53125 -1.9375q0.546875 -0.84375 1.4375 -1.3125q0.90625 -0.46875 1.953125 -0.46875q1.015625 0 1.859375 0.4375q0.859375 0.421875 1.34375 1.171875q0.5 0.734375 0.5 1.671875zm-3.78125 -1.78125q-0.765625 0 -1.390625 0.359375q-0.625 0.34375 -0.859375 1.0l4.59375 0q-0.109375 -0.609375 -0.71875 -0.984375q-0.609375 -0.375 -1.625 -0.375z" fill-rule="nonzero"/><path fill="#ff0000" d="m197.35353 42.85713q-0.703125 0 -0.9375 0.1875q-0.234375 0.1875 -0.234375 0.71875l0 0.625l3.234375 0l0 1.46875l-3.234375 0l0 3.984375l3.234375 0l0 1.484375l-6.21875 0l0 -1.484375l1.515625 0l0 -3.984375l-1.515625 0l0 -1.46875l1.515625 0l0 -0.375q0 -0.921875 0.15625 -1.390625q0.21875 -0.609375 0.859375 -0.921875q0.640625 -0.3125 1.671875 -0.3125q0.578125 0 1.34375 0.09375l1.28125 0.203125l-0.578125 1.46875q-0.96875 -0.203125 -1.34375 -0.25q-0.359375 -0.046875 -0.75 -0.046875zm10.193771 1.640625q0.6875 0.3125 0.96875 0.859375q0.28125 0.546875 0.28125 1.59375l0 2.890625l1.234375 0l0 1.484375l-2.671875 0l0 -0.75q-0.71875 0.5 -1.34375 0.71875q-0.609375 0.21875 -1.328125 0.21875q-0.8125 0 -1.453125 -0.328125q-0.625 -0.328125 -0.96875 -0.84375q-0.34375 -0.53125 -0.34375 -1.109375q0 -0.640625 0.390625 -1.21875q0.40625 -0.578125 1.203125 -0.9375q0.8125 -0.359375 1.984375 -0.359375q0.59375 0 1.859375 0.109375l0 -0.15625q0 -0.53125 -0.390625 -0.78125q-0.390625 -0.25 -1.1875 -0.25q-1.203125 0 -2.75 0.625l-0.578125 -1.28125q1.984375 -0.828125 3.40625 -0.828125q0.984375 0 1.6875 0.34375zm-2.890625 5.53125q1.375 0 2.703125 -1.234375l0 -0.484375l-0.40625 -0.03125q-0.125 -0.015625 -0.625 -0.046875q-0.5 -0.046875 -0.921875 -0.046875q-0.828125 0 -1.421875 0.28125q-0.578125 0.28125 -0.578125 0.765625q0 0.34375 0.359375 0.578125q0.375 0.21875 0.890625 0.21875zm9.943771 -5.640625l3.8125 0l0 1.484375l-3.8125 0l0 2.859375q0 0.71875 0.296875 1.015625q0.3125 0.296875 0.984375 0.296875q1.09375 0 3.21875 -0.953125l0.25 1.46875q-1.203125 0.53125 -2.0 0.75q-0.796875 0.203125 -1.484375 0.203125q-1.359375 0 -2.0625 -0.640625q-0.6875 -0.640625 -0.6875 -1.796875l0 -3.203125l-1.015625 0l0 -1.484375l1.015625 0l0 -2.140625l1.484375 0l0 2.140625zm8.928146 0.53125q0.703125 -0.40625 1.25 -0.578125q0.546875 -0.171875 1.125 -0.171875q1.171875 0 1.8125 0.65625q0.65625 0.640625 0.65625 1.921875l0 3.09375l1.234375 0l0 1.484375l-3.921875 0l0 -1.484375l1.21875 0l0 -3.1875q0 -0.484375 -0.265625 -0.75q-0.25 -0.265625 -0.75 -0.265625q-1.046875 0 -2.359375 0.9375l0 3.265625l1.203125 0l0 1.484375l-3.90625 0l0 -1.484375l1.234375 0l0 -6.96875l-1.234375 0l0 -1.484375l2.703125 0l0 3.53125zm14.943771 2.53125q0 0.546875 -0.046875 1.0625l-6.09375 0q0.125 0.71875 0.765625 1.125q0.65625 0.40625 1.71875 0.40625q1.484375 0 3.25 -0.90625l0.671875 1.21875q-0.953125 0.5625 -1.96875 0.859375q-1.0 0.296875 -1.953125 0.296875q-1.1875 0 -2.09375 -0.46875q-0.890625 -0.46875 -1.390625 -1.296875q-0.484375 -0.828125 -0.484375 -1.859375q0 -1.109375 0.53125 -1.9375q0.546875 -0.84375 1.4375 -1.3125q0.90625 -0.46875 1.953125 -0.46875q1.015625 0 1.859375 0.4375q0.859375 0.421875 1.34375 1.171875q0.5 0.734375 0.5 1.671875zm-3.78125 -1.78125q-0.765625 0 -1.390625 0.359375q-0.625 0.34375 -0.859375 1.0l4.59375 0q-0.109375 -0.609375 -0.71875 -0.984375q-0.609375 -0.375 -1.625 -0.375zm13.818771 0.3125l-1.40625 0.21875q-0.046875 -0.328125 -0.15625 -0.4375q-0.09375 -0.125 -0.359375 -0.125q-0.90625 0 -2.875 1.65625l0 2.546875l2.921875 0l0 1.484375l-6.109375 0l0 -1.484375l1.703125 0l0 -3.96875l-1.71875 0l0 -1.484375l3.203125 0l0 1.109375q0.890625 -0.71875 1.5625 -1.03125q0.671875 -0.3125 1.3125 -0.3125q1.75 0 1.921875 1.828125z" fill-rule="nonzero"/><path fill="#000000" d="m267.47556 47.841503q0 1.109375 -0.53125 1.953125q-0.53125 0.84375 -1.4375 1.28125q-0.90625 0.4375 -2.015625 0.4375q-1.109375 0 -2.078125 -0.421875q-0.953125 -0.421875 -1.53125 -1.234375q-0.578125 -0.828125 -0.578125 -1.984375q0 -1.125 0.546875 -1.96875q0.5625 -0.84375 1.5 -1.296875q0.9375 -0.453125 2.0625 -0.453125q1.234375 0 2.15625 0.5q0.921875 0.484375 1.40625 1.328125q0.5 0.828125 0.5 1.859375zm-4.015625 2.1875q1.125 0 1.828125 -0.59375q0.703125 -0.609375 0.703125 -1.625q0 -0.921875 -0.703125 -1.546875q-0.6875 -0.625 -1.9375 -0.625q-0.6875 0 -1.28125 0.28125q-0.578125 0.265625 -0.921875 0.78125q-0.34375 0.5 -0.34375 1.15625q0 1.015625 0.765625 1.59375q0.765625 0.578125 1.890625 0.578125zm10.693756 -7.171875q-0.703125 0 -0.9375 0.1875q-0.234375 0.1875 -0.234375 0.71875l0 0.625l3.234375 0l0 1.46875l-3.234375 0l0 3.984375l3.234375 0l0 1.484375l-6.21875 0l0 -1.484375l1.515625 0l0 -3.984375l-1.515625 0l0 -1.46875l1.515625 0l0 -0.375q0 -0.921875 0.15625 -1.390625q0.21875 -0.609375 0.859375 -0.921875q0.640625 -0.3125 1.671875 -0.3125q0.578125 0 1.34375 0.09375l1.28125 0.203125l-0.578125 1.46875q-0.96875 -0.203125 -1.34375 -0.25q-0.359375 -0.046875 -0.75 -0.046875zm21.887573 6.984375l0.890625 0l0 1.484375l-3.71875 0l0 -1.484375l1.328125 0l-0.46875 -1.09375l-3.71875 0l-0.453125 1.09375l1.375 0l0 1.484375l-3.8125 0l0 -1.484375l0.953125 0l2.59375 -6.171875l-1.96875 0l0 -1.5l3.859375 0l3.140625 7.671875zm-2.5625 -2.578125l-1.25 -2.96875l-1.25 2.96875l2.5 0zm9.100006 2.578125l2.65625 0l0 1.484375l-6.78125 0l0 -1.484375l2.640625 0l0 -6.96875l-2.53125 0l0 -1.484375l4.015625 0l0 8.453125zm6.896881 -4.875q0.453125 -0.390625 1.03125 -0.59375q0.59375 -0.21875 1.234375 -0.21875q1.015625 0 1.875 0.515625q0.859375 0.515625 1.34375 1.359375q0.484375 0.828125 0.484375 1.796875q0 0.96875 -0.46875 1.828125q-0.46875 0.84375 -1.3125 1.359375q-0.828125 0.5 -1.875 0.5q-0.65625 0 -1.1875 -0.171875q-0.515625 -0.171875 -1.125 -0.625l0 0.609375l-2.71875 0l0 -1.484375l1.25 0l0 -6.96875l-1.265625 0l0 -1.484375l2.734375 0l0 3.578125zm2.21875 5.078125q0.640625 0 1.15625 -0.296875q0.515625 -0.3125 0.8125 -0.8125q0.296875 -0.515625 0.296875 -1.125q0 -0.53125 -0.28125 -1.03125q-0.265625 -0.5 -0.78125 -0.8125q-0.515625 -0.328125 -1.203125 -0.328125q-1.046875 0 -1.65625 0.609375q-0.609375 0.59375 -0.609375 1.625q0 0.703125 0.3125 1.1875q0.328125 0.484375 0.84375 0.734375q0.53125 0.25 1.109375 0.25zm13.178162 -2.59375q0 0.546875 -0.046875 1.0625l-6.09375 0q0.125 0.71875 0.765625 1.125q0.65625 0.40625 1.71875 0.40625q1.484375 0 3.25 -0.90625l0.671875 1.21875q-0.953125 0.5625 -1.96875 0.859375q-1.0 0.296875 -1.953125 0.296875q-1.1875 0 -2.09375 -0.46875q-0.890625 -0.46875 -1.390625 -1.296875q-0.484375 -0.828125 -0.484375 -1.859375q0 -1.109375 0.53125 -1.9375q0.546875 -0.84375 1.4375 -1.3125q0.90625 -0.46875 1.953125 -0.46875q1.015625 0 1.859375 0.4375q0.859375 0.421875 1.34375 1.171875q0.5 0.734375 0.5 1.671875zm-3.78125 -1.78125q-0.765625 0 -1.390625 0.359375q-0.625 0.34375 -0.859375 1.0l4.59375 0q-0.109375 -0.609375 -0.71875 -0.984375q-0.609375 -0.375 -1.625 -0.375zm13.818787 0.3125l-1.40625 0.21875q-0.046875 -0.328125 -0.15625 -0.4375q-0.09375 -0.125 -0.359375 -0.125q-0.90625 0 -2.875 1.65625l0 2.546875l2.921875 0l0 1.484375l-6.109375 0l0 -1.484375l1.703125 0l0 -3.96875l-1.71875 0l0 -1.484375l3.203125 0l0 1.109375q0.890625 -0.71875 1.5625 -1.03125q0.671875 -0.3125 1.3125 -0.3125q1.75 0 1.921875 1.828125zm4.490631 -1.59375l3.8125 0l0 1.484375l-3.8125 0l0 2.859375q0 0.71875 0.296875 1.015625q0.3125 0.296875 0.984375 0.296875q1.09375 0 3.21875 -0.953125l0.25 1.46875q-1.203125 0.53125 -2.0 0.75q-0.796875 0.203125 -1.484375 0.203125q-1.359375 0 -2.0625 -0.640625q-0.6875 -0.640625 -0.6875 -1.796875l0 -3.203125l-1.015625 0l0 -1.484375l1.015625 0l0 -2.140625l1.484375 0l0 2.140625zm11.912506 5.8125q0 0.546875 -0.421875 0.9375q-0.421875 0.375 -1.046875 0.375q-0.453125 0 -0.8125 -0.1875q-0.34375 -0.1875 -0.546875 -0.484375q-0.1875 -0.3125 -0.1875 -0.625q0 -0.53125 0.4375 -0.9375q0.4375 -0.40625 1.078125 -0.40625q0.65625 0 1.078125 0.40625q0.421875 0.390625 0.421875 0.921875z" fill-rule="nonzero"/><path fill="#000000" d="m15.71875 61.372753l0 -0.375l1.46875 0l0 3.4375038l-1.46875 0l0 -1.5312538q-0.9375 -0.4375 -1.75 -0.4375q-0.875 0 -1.46875 0.4375q-0.578125 0.4375 -0.578125 1.015625q0 0.5156288 0.328125 0.7812538q0.34375 0.265625 0.828125 0.359375q0.5 0.09375 1.34375 0.171875l0.625 0.0625q1.15625 0.15625 1.8125 0.75q0.65625 0.59375 0.65625 1.65625q0 0.84375 -0.484375 1.484375q-0.484375 0.640625 -1.3125 1.0q-0.8125 0.34375 -1.84375 0.34375q-0.5625 0 -1.078125 -0.125q-0.5 -0.125 -1.140625 -0.453125l0 0.578125l-1.46875 0l0 -3.34375l1.46875 0l0 1.21875q1.09375 0.65625 2.234375 0.65625q1.046875 0 1.609375 -0.34375q0.5625 -0.359375 0.5625 -1.015625q0 -0.5625 -0.453125 -0.8125q-0.4375 -0.265625 -1.5 -0.28125q-1.796875 -0.03125 -2.734375 -0.765625q-0.9375 -0.734375 -0.9375 -1.9218788q0 -0.75 0.4375 -1.421875q0.4375 -0.6875 1.234375 -1.09375q0.796875 -0.40625 1.796875 -0.40625q1.0 0 1.8125 0.375zm10.600021 2.109375q0 0.7812538 -0.25 1.3281288q-0.25 0.546875 -0.8125 1.109375q-0.546875 0.546875 -1.90625 1.78125l-1.234375 1.125l2.78125 0l0 -1.0625l1.421875 0l0 2.5625l-6.5625 0l0 -1.25l4.203125 -3.71875q0.421875 -0.375 0.671875 -0.8125q0.265625 -0.4375 0.265625 -0.9218788q0 -0.71875 -0.515625 -1.15625q-0.5 -0.453125 -1.25 -0.453125q-0.59375 0 -1.109375 0.28125q-0.5 0.28125 -0.5 0.859375l0 0.28125l-1.46875 0l0 -1.40625q0.609375 -0.75 1.390625 -1.125q0.796875 -0.390625 1.71875 -0.390625q0.859375 0 1.578125 0.375q0.71875 0.359375 1.140625 1.03125q0.4375 0.671875 0.4375 1.5625zm8.193771 1.7187538q0 0.546875 -0.421875 0.9375q-0.421875 0.375 -1.046875 0.375q-0.453125 0 -0.8125 -0.1875q-0.34375 -0.1875 -0.546875 -0.484375q-0.1875 -0.3125 -0.1875 -0.625q0 -0.53125 0.4375 -0.9375q0.4375 -0.4062538 1.078125 -0.4062538q0.65625 0 1.078125 0.4062538q0.421875 0.390625 0.421875 0.921875zm0 4.0q0 0.546875 -0.421875 0.9375q-0.421875 0.375 -1.046875 0.375q-0.453125 0 -0.8125 -0.1875q-0.34375 -0.1875 -0.546875 -0.484375q-0.1875 -0.3125 -0.1875 -0.625q0 -0.53125 0.4375 -0.9375q0.4375 -0.40625 1.078125 -0.40625q0.65625 0 1.078125 0.40625q0.421875 0.390625 0.421875 0.921875zm21.606293 -4.9375q0 0.84375 -0.40625 1.515625q-0.40625 0.671875 -1.125 1.046875q-0.703125 0.375 -1.5625 0.375l-1.921875 0l0 1.640625l1.9375 0l0 1.484375l-4.6875 0l0 -1.484375l1.265625 0l0 -6.171879l-1.25 0l0 -1.5l4.234375 0q1.65625 0 2.578125 0.828125q0.9375 0.8125 0.9375 2.2656288zm-1.46875 -0.046875q0 -0.7031288 -0.53125 -1.1250038q-0.515625 -0.421875 -1.515625 -0.421875l-1.5 0l0 3.0468788l1.65625 0q1.890625 0 1.890625 -1.5zm8.896896 -0.7187538q0.6875 0.3125 0.96875 0.8593788q0.28125 0.546875 0.28125 1.59375l0 2.890625l1.234375 0l0 1.484375l-2.671875 0l0 -0.75q-0.71875 0.5 -1.34375 0.71875q-0.609375 0.21875 -1.328125 0.21875q-0.8125 0 -1.453125 -0.328125q-0.625 -0.328125 -0.96875 -0.84375q-0.34375 -0.53125 -0.34375 -1.109375q0 -0.640625 0.390625 -1.21875q0.40625 -0.578125 1.203125 -0.9375q0.8125 -0.359375 1.984375 -0.359375q0.59375 0 1.859375 0.109375l0 -0.15625q0 -0.53125 -0.390625 -0.78125q-0.390625 -0.25 -1.1875 -0.25q-1.203125 0 -2.75 0.625l-0.578125 -1.2812538q1.984375 -0.828125 3.40625 -0.828125q0.984375 0 1.6875 0.34375zm-2.890625 5.531254q1.375 0 2.703125 -1.234375l0 -0.484375l-0.40625 -0.03125q-0.125 -0.015625 -0.625 -0.046875q-0.5 -0.046875 -0.921875 -0.046875q-0.828125 0 -1.421875 0.28125q-0.578125 0.28125 -0.578125 0.765625q0 0.34375 0.359375 0.578125q0.375 0.21875 0.890625 0.21875zm9.006271 -1.15625q0 0.578125 0.328125 0.890625q0.34375 0.296875 1.0 0.296875q0.5625 0 1.03125 -0.21875q0.484375 -0.234375 1.046875 -0.75l0 -3.21875l-1.21875 0l0 -1.4843788l2.6875 0l0 5.453129l1.234375 0l0 1.484375l-2.703125 0l0 -0.5q-1.0625 0.6875 -2.109375 0.6875q-0.953125 0 -1.859375 -0.5q-0.90625 -0.5 -0.90625 -1.984375l0 -3.15625l-1.234375 0l0 -1.4843788l2.703125 0l0 4.484379zm12.115646 0.96875l2.65625 0l0 1.484375l-6.78125 0l0 -1.484375l2.640625 0l0 -6.968754l-2.53125 0l0 -1.484375l4.015625 0l0 8.453129zm9.615646 -6.406254l-1.6875 0l0 -2.375l1.6875 0l0 2.375zm0 6.406254l2.625 0l0 1.484375l-6.78125 0l0 -1.484375l2.671875 0l0 -3.96875l-2.234375 0l0 -1.4843788l3.71875 0l0 5.453129zm12.021896 -3.40625l0 3.40625l1.203125 0l0 1.484375l-3.890625 0l0 -1.484375l1.21875 0l0 -3.140625q0 -0.59375 -0.28125 -0.828125q-0.265625 -0.234375 -0.890625 -0.234375q-0.53125 0 -1.171875 0.234375q-0.640625 0.234375 -1.09375 0.65625l0 3.3125l1.25 0l0 1.484375l-3.953125 0l0 -1.484375l1.21875 0l0 -3.96875l-1.25 0l0 -1.4843788l2.734375 0l0 0.5q0.515625 -0.328125 1.140625 -0.515625q0.640625 -0.203125 1.265625 -0.203125q1.234375 0 1.859375 0.640625q0.640625 0.6250038 0.640625 1.6250038zm10.256271 1.015625q0 0.546875 -0.046875 1.0625l-6.09375 0q0.125 0.71875 0.765625 1.125q0.65625 0.40625 1.71875 0.40625q1.484375 0 3.25 -0.90625l0.671875 1.21875q-0.953125 0.5625 -1.96875 0.859375q-1.0 0.296875 -1.953125 0.296875q-1.1875 0 -2.09375 -0.46875q-0.890625 -0.46875 -1.390625 -1.296875q-0.484375 -0.828125 -0.484375 -1.859375q0 -1.109375 0.53125 -1.9375q0.546875 -0.84375 1.4375 -1.3125038q0.90625 -0.46875 1.953125 -0.46875q1.015625 0 1.859375 0.4375q0.859375 0.4218788 1.34375 1.1718788q0.5 0.734375 0.5 1.671875zm-3.78125 -1.78125q-0.765625 0 -1.390625 0.359375q-0.625 0.34375 -0.859375 1.0l4.59375 0q-0.109375 -0.609375 -0.71875 -0.984375q-0.609375 -0.375 -1.625 -0.375zm19.903168 -2.2343788l-1.6875 0l0 -2.375l1.6875 0l0 2.375zm0 6.406254l2.625 0l0 1.484375l-6.78125 0l0 -1.484375l2.671875 0l0 -3.96875l-2.234375 0l0 -1.4843788l3.71875 0l0 5.453129zm10.615646 -5.312504l0 -0.375l1.46875 0l0 2.7812538l-1.46875 0l0 -0.890625q-0.390625 -0.1875 -0.90625 -0.296875q-0.5 -0.109375 -0.984375 -0.109375q-0.703125 0 -1.203125 0.203125q-0.5 0.203125 -0.5 0.546875q0 0.578125 1.4375 0.71875l2.015625 0.15625q0.828125 0.078125 1.375 0.625q0.546875 0.53125 0.546875 1.328125q0 0.671875 -0.4375 1.1875q-0.421875 0.515625 -1.15625 0.8125q-0.71875 0.296875 -1.609375 0.296875q-1.15625 0 -2.328125 -0.453125l0 0.453125l-1.46875 0l0 -3.0l1.46875 0l0 1.109375q1.109375 0.40625 2.25 0.40625q0.75 0 1.296875 -0.21875q0.546875 -0.234375 0.546875 -0.59375q0 -0.390625 -0.34375 -0.5q-0.34375 -0.109375 -1.203125 -0.15625q-0.828125 -0.03125 -1.25 -0.09375q-2.5625 -0.328125 -2.5625 -2.109375q0 -1.03125 0.859375 -1.6093788q0.859375 -0.59375 2.140625 -0.59375q1.046875 0 2.015625 0.375zm16.590668 -0.140625l3.8125 0l0 1.4843788l-3.8125 0l0 2.859375q0 0.71875 0.296875 1.015625q0.3125 0.296875 0.984375 0.296875q1.09375 0 3.21875 -0.953125l0.25 1.46875q-1.203125 0.53125 -2.0 0.75q-0.796875 0.203125 -1.484375 0.203125q-1.359375 0 -2.0625 -0.640625q-0.6875 -0.640625 -0.6875 -1.796875l0 -3.203125l-1.015625 0l0 -1.4843788l1.015625 0l0 -2.140625l1.484375 0l0 2.140625zm8.928146 0.53125q0.703125 -0.40625 1.25 -0.578125q0.546875 -0.171875 1.125 -0.171875q1.171875 0 1.8125 0.65625q0.65625 0.6406288 0.65625 1.9218788l0 3.09375l1.234375 0l0 1.484375l-3.921875 0l0 -1.484375l1.21875 0l0 -3.1875q0 -0.484375 -0.265625 -0.75q-0.25 -0.265625 -0.75 -0.265625q-1.046875 0 -2.359375 0.9375l0 3.265625l1.203125 0l0 1.484375l-3.90625 0l0 -1.484375l1.234375 0l0 -6.968754l-1.234375 0l0 -1.484375l2.703125 0l0 3.53125zm14.943771 2.5312538q0 0.546875 -0.046875 1.0625l-6.09375 0q0.125 0.71875 0.765625 1.125q0.65625 0.40625 1.71875 0.40625q1.484375 0 3.25 -0.90625l0.671875 1.21875q-0.953125 0.5625 -1.96875 0.859375q-1.0 0.296875 -1.953125 0.296875q-1.1875 0 -2.09375 -0.46875q-0.890625 -0.46875 -1.390625 -1.296875q-0.484375 -0.828125 -0.484375 -1.859375q0 -1.109375 0.53125 -1.9375q0.546875 -0.84375 1.4375 -1.3125038q0.90625 -0.46875 1.953125 -0.46875q1.015625 0 1.859375 0.4375q0.859375 0.4218788 1.34375 1.1718788q0.5 0.734375 0.5 1.671875zm-3.78125 -1.78125q-0.765625 0 -1.390625 0.359375q-0.625 0.34375 -0.859375 1.0l4.59375 0q-0.109375 -0.609375 -0.71875 -0.984375q-0.609375 -0.375 -1.625 -0.375z" fill-rule="nonzero"/><path fill="#ff0000" d="m196.5254 63.935253q0.3125 -0.359375 0.765625 -0.5625q0.46875 -0.203125 0.953125 -0.203125q0.9375 0 1.5 0.625q0.578125 0.6250038 0.578125 1.4843788l0 3.5625l0.921875 0l0 1.484375l-2.390625 0l0 -5.078125q0 -0.203125 -0.1875 -0.390625q-0.171875 -0.1875 -0.484375 -0.1875q-0.28125 0 -0.5625 0.171875q-0.28125 0.15625 -0.515625 0.46875l0 3.53125l0.953125 0l0 1.484375l-2.4375 0l0 -4.875q0 -0.34375 -0.1875 -0.5625q-0.1875 -0.21875 -0.53125 -0.21875q-0.453125 0 -1.03125 0.515625l0 3.65625l1.25 0l0 1.484375l-3.953125 0l0 -1.484375l1.21875 0l0 -3.96875l-1.21875 0l0 -1.4843788l2.703125 0l0 0.34375q0.21875 -0.265625 0.546875 -0.40625q0.34375 -0.15625 0.734375 -0.15625q0.890625 0 1.375 0.765625zm13.350021 2.9062538q0 1.109375 -0.53125 1.953125q-0.53125 0.84375 -1.4375 1.28125q-0.90625 0.4375 -2.015625 0.4375q-1.109375 0 -2.078125 -0.421875q-0.953125 -0.421875 -1.53125 -1.234375q-0.578125 -0.828125 -0.578125 -1.984375q0 -1.125 0.546875 -1.96875q0.5625 -0.84375 1.5 -1.2968788q0.9375 -0.453125 2.0625 -0.453125q1.234375 0 2.15625 0.5q0.921875 0.4843788 1.40625 1.3281288q0.5 0.828125 0.5 1.859375zm-4.015625 2.1875q1.125 0 1.828125 -0.59375q0.703125 -0.609375 0.703125 -1.625q0 -0.921875 -0.703125 -1.546875q-0.6875 -0.625 -1.9375 -0.625q-0.6875 0 -1.28125 0.28125q-0.578125 0.265625 -0.921875 0.78125q-0.34375 0.5 -0.34375 1.15625q0 1.015625 0.765625 1.59375q0.765625 0.578125 1.890625 0.578125zm8.740646 -5.640629l3.8125 0l0 1.4843788l-3.8125 0l0 2.859375q0 0.71875 0.296875 1.015625q0.3125 0.296875 0.984375 0.296875q1.09375 0 3.21875 -0.953125l0.25 1.46875q-1.203125 0.53125 -2.0 0.75q-0.796875 0.203125 -1.484375 0.203125q-1.359375 0 -2.0625 -0.640625q-0.6875 -0.640625 -0.6875 -1.796875l0 -3.203125l-1.015625 0l0 -1.4843788l1.015625 0l0 -2.140625l1.484375 0l0 2.140625zm8.928146 0.53125q0.703125 -0.40625 1.25 -0.578125q0.546875 -0.171875 1.125 -0.171875q1.171875 0 1.8125 0.65625q0.65625 0.6406288 0.65625 1.9218788l0 3.09375l1.234375 0l0 1.484375l-3.921875 0l0 -1.484375l1.21875 0l0 -3.1875q0 -0.484375 -0.265625 -0.75q-0.25 -0.265625 -0.75 -0.265625q-1.046875 0 -2.359375 0.9375l0 3.265625l1.203125 0l0 1.484375l-3.90625 0l0 -1.484375l1.234375 0l0 -6.968754l-1.234375 0l0 -1.484375l2.703125 0l0 3.53125zm14.943771 2.5312538q0 0.546875 -0.046875 1.0625l-6.09375 0q0.125 0.71875 0.765625 1.125q0.65625 0.40625 1.71875 0.40625q1.484375 0 3.25 -0.90625l0.671875 1.21875q-0.953125 0.5625 -1.96875 0.859375q-1.0 0.296875 -1.953125 0.296875q-1.1875 0 -2.09375 -0.46875q-0.890625 -0.46875 -1.390625 -1.296875q-0.484375 -0.828125 -0.484375 -1.859375q0 -1.109375 0.53125 -1.9375q0.546875 -0.84375 1.4375 -1.3125038q0.90625 -0.46875 1.953125 -0.46875q1.015625 0 1.859375 0.4375q0.859375 0.4218788 1.34375 1.1718788q0.5 0.734375 0.5 1.671875zm-3.78125 -1.78125q-0.765625 0 -1.390625 0.359375q-0.625 0.34375 -0.859375 1.0l4.59375 0q-0.109375 -0.609375 -0.71875 -0.984375q-0.609375 -0.375 -1.625 -0.375zm13.818771 0.3125l-1.40625 0.21875q-0.046875 -0.328125 -0.15625 -0.4375q-0.09375 -0.125 -0.359375 -0.125q-0.90625 0 -2.875 1.65625l0 2.546875l2.921875 0l0 1.484375l-6.109375 0l0 -1.484375l1.703125 0l0 -3.96875l-1.71875 0l0 -1.4843788l3.203125 0l0 1.1093788q0.890625 -0.7187538 1.5625 -1.0312538q0.671875 -0.3125 1.3125 -0.3125q1.75 0 1.921875 1.8281288z" fill-rule="nonzero"/><path fill="#000000" d="m267.47556 66.84151q0 1.109375 -0.53125 1.953125q-0.53125 0.84375 -1.4375 1.28125q-0.90625 0.4375 -2.015625 0.4375q-1.109375 0 -2.078125 -0.421875q-0.953125 -0.421875 -1.53125 -1.234375q-0.578125 -0.828125 -0.578125 -1.984375q0 -1.125 0.546875 -1.96875q0.5625 -0.84375 1.5 -1.2968788q0.9375 -0.453125 2.0625 -0.453125q1.234375 0 2.15625 0.5q0.921875 0.4843788 1.40625 1.3281288q0.5 0.828125 0.5 1.859375zm-4.015625 2.1875q1.125 0 1.828125 -0.59375q0.703125 -0.609375 0.703125 -1.625q0 -0.921875 -0.703125 -1.546875q-0.6875 -0.625 -1.9375 -0.625q-0.6875 0 -1.28125 0.28125q-0.578125 0.265625 -0.921875 0.78125q-0.34375 0.5 -0.34375 1.15625q0 1.015625 0.765625 1.59375q0.765625 0.578125 1.890625 0.578125zm10.693756 -7.171879q-0.703125 0 -0.9375 0.1875q-0.234375 0.1875 -0.234375 0.71875l0 0.625l3.234375 0l0 1.4687538l-3.234375 0l0 3.984375l3.234375 0l0 1.484375l-6.21875 0l0 -1.484375l1.515625 0l0 -3.984375l-1.515625 0l0 -1.4687538l1.515625 0l0 -0.375q0 -0.921875 0.15625 -1.390625q0.21875 -0.609375 0.859375 -0.921875q0.640625 -0.3125 1.671875 -0.3125q0.578125 0 1.34375 0.09375l1.28125 0.203125l-0.578125 1.46875q-0.96875 -0.203125 -1.34375 -0.25q-0.359375 -0.046875 -0.75 -0.046875zm21.887573 6.984379l0.890625 0l0 1.484375l-3.71875 0l0 -1.484375l1.328125 0l-0.46875 -1.09375l-3.71875 0l-0.453125 1.09375l1.375 0l0 1.484375l-3.8125 0l0 -1.484375l0.953125 0l2.59375 -6.171879l-1.96875 0l0 -1.5l3.859375 0l3.140625 7.671879zm-2.5625 -2.578125l-1.25 -2.9687538l-1.25 2.9687538l2.5 0zm9.100006 2.578125l2.65625 0l0 1.484375l-6.78125 0l0 -1.484375l2.640625 0l0 -6.968754l-2.53125 0l0 -1.484375l4.015625 0l0 8.453129zm6.896881 -4.875004q0.453125 -0.390625 1.03125 -0.59375q0.59375 -0.21875 1.234375 -0.21875q1.015625 0 1.875 0.515625q0.859375 0.5156288 1.34375 1.3593788q0.484375 0.828125 0.484375 1.796875q0 0.96875 -0.46875 1.828125q-0.46875 0.84375 -1.3125 1.359375q-0.828125 0.5 -1.875 0.5q-0.65625 0 -1.1875 -0.171875q-0.515625 -0.171875 -1.125 -0.625l0 0.609375l-2.71875 0l0 -1.484375l1.25 0l0 -6.968754l-1.265625 0l0 -1.484375l2.734375 0l0 3.578125zm2.21875 5.078129q0.640625 0 1.15625 -0.296875q0.515625 -0.3125 0.8125 -0.8125q0.296875 -0.515625 0.296875 -1.125q0 -0.53125 -0.28125 -1.03125q-0.265625 -0.5 -0.78125 -0.8125q-0.515625 -0.328125 -1.203125 -0.328125q-1.046875 0 -1.65625 0.609375q-0.609375 0.59375 -0.609375 1.625q0 0.703125 0.3125 1.1875q0.328125 0.484375 0.84375 0.734375q0.53125 0.25 1.109375 0.25zm13.178162 -2.59375q0 0.546875 -0.046875 1.0625l-6.09375 0q0.125 0.71875 0.765625 1.125q0.65625 0.40625 1.71875 0.40625q1.484375 0 3.25 -0.90625l0.671875 1.21875q-0.953125 0.5625 -1.96875 0.859375q-1.0 0.296875 -1.953125 0.296875q-1.1875 0 -2.09375 -0.46875q-0.890625 -0.46875 -1.390625 -1.296875q-0.484375 -0.828125 -0.484375 -1.859375q0 -1.109375 0.53125 -1.9375q0.546875 -0.84375 1.4375 -1.3125038q0.90625 -0.46875 1.953125 -0.46875q1.015625 0 1.859375 0.4375q0.859375 0.4218788 1.34375 1.1718788q0.5 0.734375 0.5 1.671875zm-3.78125 -1.78125q-0.765625 0 -1.390625 0.359375q-0.625 0.34375 -0.859375 1.0l4.59375 0q-0.109375 -0.609375 -0.71875 -0.984375q-0.609375 -0.375 -1.625 -0.375zm13.818787 0.3125l-1.40625 0.21875q-0.046875 -0.328125 -0.15625 -0.4375q-0.09375 -0.125 -0.359375 -0.125q-0.90625 0 -2.875 1.65625l0 2.546875l2.921875 0l0 1.484375l-6.109375 0l0 -1.484375l1.703125 0l0 -3.96875l-1.71875 0l0 -1.4843788l3.203125 0l0 1.1093788q0.890625 -0.7187538 1.5625 -1.0312538q0.671875 -0.3125 1.3125 -0.3125q1.75 0 1.921875 1.8281288zm4.490631 -1.5937538l3.8125 0l0 1.4843788l-3.8125 0l0 2.859375q0 0.71875 0.296875 1.015625q0.3125 0.296875 0.984375 0.296875q1.09375 0 3.21875 -0.953125l0.25 1.46875q-1.203125 0.53125 -2.0 0.75q-0.796875 0.203125 -1.484375 0.203125q-1.359375 0 -2.0625 -0.640625q-0.6875 -0.640625 -0.6875 -1.796875l0 -3.203125l-1.015625 0l0 -1.4843788l1.015625 0l0 -2.140625l1.484375 0l0 2.140625zm11.912506 5.812504q0 0.546875 -0.421875 0.9375q-0.421875 0.375 -1.046875 0.375q-0.453125 0 -0.8125 -0.1875q-0.34375 -0.1875 -0.546875 -0.484375q-0.1875 -0.3125 -0.1875 -0.625q0 -0.53125 0.4375 -0.9375q0.4375 -0.40625 1.078125 -0.40625q0.65625 0 1.078125 0.40625q0.421875 0.390625 0.421875 0.921875z" fill-rule="nonzero"/><path fill="#000000" d="m463.46735 45.903835l0 0c0 -2.7657738 2.0376282 -5.0078735 4.551178 -5.0078735l0 0c1.2070618 0 2.364685 0.5276108 3.2181702 1.4667702c0.8535156 0.9391594 1.3330078 2.2129326 1.3330078 3.5411034l0 0c0 2.76577 -2.0376282 5.0078735 -4.551178 5.0078735l0 0c-2.5135498 0 -4.551178 -2.2421036 -4.551178 -5.0078735z" fill-rule="evenodd"/><path stroke="#000000" stroke-width="1.0" stroke-linejoin="round" stroke-linecap="butt" d="m463.46735 45.903835l0 0c0 -2.7657738 2.0376282 -5.0078735 4.551178 -5.0078735l0 0c1.2070618 0 2.364685 0.5276108 3.2181702 1.4667702c0.8535156 0.9391594 1.3330078 2.2129326 1.3330078 3.5411034l0 0c0 2.76577 -2.0376282 5.0078735 -4.551178 5.0078735l0 0c-2.5135498 0 -4.551178 -2.2421036 -4.551178 -5.0078735z" fill-rule="evenodd"/><path fill="#000000" d="m498.21597 81.10215l0 0c0 -2.76577 2.0376282 -5.0078735 4.551178 -5.0078735l0 0c1.2070618 0 2.3646545 0.5276184 3.2181702 1.466774c0.8535156 0.9391556 1.3330078 2.2129288 1.3330078 3.5410995l0 0c0 2.7657776 -2.0376282 5.0078735 -4.551178 5.0078735l0 0c-2.5135498 0 -4.551178 -2.242096 -4.551178 -5.0078735z" fill-rule="evenodd"/><path stroke="#000000" stroke-width="1.0" stroke-linejoin="round" stroke-linecap="butt" d="m498.21597 81.10215l0 0c0 -2.76577 2.0376282 -5.0078735 4.551178 -5.0078735l0 0c1.2070618 0 2.3646545 0.5276184 3.2181702 1.466774c0.8535156 0.9391556 1.3330078 2.2129288 1.3330078 3.5410995l0 0c0 2.7657776 -2.0376282 5.0078735 -4.551178 5.0078735l0 0c-2.5135498 0 -4.551178 -2.242096 -4.551178 -5.0078735z" fill-rule="evenodd"/><path fill="#000000" d="m424.32565 83.94992l0 0c0 -2.76577 2.0376282 -5.0078735 4.551178 -5.0078735l0 0c1.2070312 0 2.3646545 0.5276108 3.2181702 1.466774c0.8535156 0.9391556 1.3330078 2.2129288 1.3330078 3.5410995l0 0c0 2.76577 -2.0376282 5.0078735 -4.551178 5.0078735l0 0c-2.5135498 0 -4.551178 -2.2421036 -4.551178 -5.0078735z" fill-rule="evenodd"/><path stroke="#000000" stroke-width="1.0" stroke-linejoin="round" stroke-linecap="butt" d="m424.32565 83.94992l0 0c0 -2.76577 2.0376282 -5.0078735 4.551178 -5.0078735l0 0c1.2070312 0 2.3646545 0.5276108 3.2181702 1.466774c0.8535156 0.9391556 1.3330078 2.2129288 1.3330078 3.5410995l0 0c0 2.76577 -2.0376282 5.0078735 -4.551178 5.0078735l0 0c-2.5135498 0 -4.551178 -2.2421036 -4.551178 -5.0078735z" fill-rule="evenodd"/><path fill="#000000" fill-opacity="0.0" d="m429.4672 11.971128l77.102356 0l0 23.748034l-77.102356 0z" fill-rule="evenodd"/><path fill="#000000" d="m447.18594 30.26863q0 0.84375 -0.40625 1.515625q-0.40625 0.6718769 -1.125 1.0468769q-0.703125 0.375 -1.5625 0.375l-1.921875 0l0 1.640625l1.9375 0l0 1.484375l-4.6875 0l0 -1.484375l1.265625 0l0 -6.171877l-1.25 0l0 -1.5l4.234375 0q1.65625 0 2.578125 0.828125q0.9375 0.8125 0.9375 2.265625zm-1.46875 -0.046875q0 -0.703125 -0.53125 -1.125q-0.515625 -0.421875 -1.515625 -0.421875l-1.5 0l0 3.046875l1.65625 0q1.890625 0 1.890625 -1.5zm10.990631 4.625002l0.890625 0l0 1.484375l-3.71875 0l0 -1.484375l1.328125 0l-0.46875 -1.09375l-3.71875 0l-0.453125 1.09375l1.375 0l0 1.484375l-3.8125 0l0 -1.484375l0.953125 0l2.59375 -6.171877l-1.96875 0l0 -1.5l3.859375 0l3.140625 7.671877zm-2.5625 -2.578125l-1.25 -2.968752l-1.25 2.968752l2.5 0zm11.865662 -2.406252q0 0.984375 -0.546875 1.640625q-0.546875 0.6562519 -1.59375 0.9062519l1.84375 2.4375l1.203125 0l0 1.484375l-2.140625 0q-0.375 -0.8125 -0.96875 -1.640625l-1.4375 -1.984375l-1.234375 0l0 2.140625l1.1875 0l0 1.484375l-3.921875 0l0 -1.484375l1.265625 0l0 -6.171877l-1.203125 0l0 -1.5l4.578125 0q1.515625 0 2.234375 0.796875q0.734375 0.78125 0.734375 1.890625zm-1.46875 0.015625q0 -0.609375 -0.359375 -0.90625q-0.34375 -0.296875 -1.0 -0.296875l-2.046875 0l0 2.53125l1.546875 0q0.9375 0 1.390625 -0.328125q0.46875 -0.328125 0.46875 -1.0zm11.537506 0.6875l-1.484375 0l0 -1.890625l-3.828125 0l0 2.265625l1.703125 0l0 -1.0625l1.484375 0l0 3.593752l-1.484375 0l0 -1.0625l-1.703125 0l0 2.4375l3.828125 0l0 -1.859375l1.484375 0l0 3.34375l-8.046875 0l0 -1.484375l1.265625 0l0 -6.171877l-1.234375 0l0 -1.5l8.015625 0l0 3.390625zm7.7562866 2.968752l0 -4.859377l-1.484375 0l0 -1.5l4.203125 0l0 1.5l-1.234375 0l0 7.656252l-1.40625 0l-4.140625 -6.531252l0 5.046877l1.5625 0l0 1.484375l-4.25 0l0 -1.484375l1.21875 0l0 -6.171877l-1.21875 0l0 -1.5l2.875 0l3.875 6.359377zm11.646881 -2.859377l-1.5 0l0 -2.0l-1.953125 0l0 6.171877l1.9375 0l0 1.484375l-5.34375 0l0 -1.484375l1.921875 0l0 -6.171877l-1.953125 0l0 2.0l-1.484375 0l0 -3.5l8.375 0l0 3.5z" fill-rule="nonzero"/><path fill="#000000" fill-opacity="0.0" d="m390.32547 79.755905l77.102356 0l0 23.748032l-77.102356 0z" fill-rule="evenodd"/><path fill="#000000" d="m408.24734 98.334656l-1.484375 0l0 -1.875l-3.75 0l0 2.28125l1.703125 0l0 -1.0625l1.46875 0l0 3.59375l-1.46875 0l0 -1.046875l-1.703125 0l0 2.40625l1.953125 0l0 1.484375l-4.625 0l0 -1.484375l1.1875 0l0 -6.171875l-1.171875 0l0 -1.5l7.890625 0l0 3.375zm9.318756 4.296875l0.890625 0l0 1.484375l-3.71875 0l0 -1.484375l1.328125 0l-0.46875 -1.09375l-3.71875 0l-0.453125 1.09375l1.375 0l0 1.484375l-3.8125 0l0 -1.484375l0.953125 0l2.59375 -6.171875l-1.96875 0l0 -1.5l3.859375 0l3.140625 7.671875zm-2.5625 -2.578125l-1.25 -2.96875l-1.25 2.96875l2.5 0zm12.537537 -1.59375l-1.5 0l0 -2.0l-1.953125 0l0 6.171875l1.9375 0l0 1.484375l-5.34375 0l0 -1.484375l1.921875 0l0 -6.171875l-1.953125 0l0 2.0l-1.484375 0l0 -3.5l8.375 0l0 3.5zm4.943756 -2.0l-1.265625 0l0 2.203125l3.484375 0l0 -2.203125l-1.25 0l0 -1.5l3.9375 0l0 1.5l-1.21875 0l0 6.171875l1.21875 0l0 1.484375l-3.9375 0l0 -1.484375l1.25 0l0 -2.484375l-3.484375 0l0 2.484375l1.265625 0l0 1.484375l-3.953125 0l0 -1.484375l1.203125 0l0 -6.171875l-1.203125 0l0 -1.5l3.953125 0l0 1.5zm14.053162 1.890625l-1.484375 0l0 -1.890625l-3.828125 0l0 2.265625l1.703125 0l0 -1.0625l1.484375 0l0 3.59375l-1.484375 0l0 -1.0625l-1.703125 0l0 2.4375l3.828125 0l0 -1.859375l1.484375 0l0 3.34375l-8.046875 0l0 -1.484375l1.265625 0l0 -6.171875l-1.234375 0l0 -1.5l8.015625 0l0 3.390625zm9.131256 -0.703125q0 0.984375 -0.546875 1.640625q-0.546875 0.65625 -1.59375 0.90625l1.84375 2.4375l1.203125 0l0 1.484375l-2.140625 0q-0.375 -0.8125 -0.96875 -1.640625l-1.4375 -1.984375l-1.234375 0l0 2.140625l1.1875 0l0 1.484375l-3.921875 0l0 -1.484375l1.265625 0l0 -6.171875l-1.203125 0l0 -1.5l4.578125 0q1.515625 0 2.234375 0.796875q0.734375 0.78125 0.734375 1.890625zm-1.46875 0.015625q0 -0.609375 -0.359375 -0.90625q-0.34375 -0.296875 -1.0 -0.296875l-2.046875 0l0 2.53125l1.546875 0q0.9375 0 1.390625 -0.328125q0.46875 -0.328125 0.46875 -1.0z" fill-rule="nonzero"/><path fill="#000000" fill-opacity="0.0" d="m464.2152 79.755905l77.102356 0l0 23.748032l-77.102356 0z" fill-rule="evenodd"/><path fill="#000000" d="m478.1527 99.522156l1.734375 -4.5625l3.125 0l0 1.5l-1.25 0l0.21875 6.171875l0.84375 0l0 1.484375l-3.796875 0l0 -1.484375l1.484375 0l-0.234375 -5.0625l-1.6875 4.515625l-0.953125 0l-1.625 -4.546875l-0.25 5.09375l1.515625 0l0 1.484375l-3.890625 0l0 -1.484375l0.890625 0l0.25 -6.171875l-1.203125 0l0 -1.5l3.1875 0l1.640625 4.5625zm13.725037 0.03125q0 1.515625 -0.609375 2.59375q-0.609375 1.078125 -1.59375 1.625q-0.96875 0.53125 -2.03125 0.53125q-1.140625 0 -2.125 -0.5625q-0.96875 -0.5625 -1.546875 -1.640625q-0.578125 -1.078125 -0.578125 -2.515625q0 -1.3125 0.53125 -2.40625q0.546875 -1.109375 1.515625 -1.75q0.96875 -0.640625 2.203125 -0.640625q1.25 0 2.21875 0.65625q0.96875 0.65625 1.484375 1.75q0.53125 1.078125 0.53125 2.359375zm-4.234375 3.296875q0.875 0 1.484375 -0.46875q0.625 -0.46875 0.953125 -1.25q0.328125 -0.78125 0.328125 -1.640625q0 -0.796875 -0.328125 -1.53125q-0.328125 -0.75 -0.953125 -1.21875q-0.625 -0.46875 -1.5 -0.46875q-0.78125 0 -1.421875 0.46875q-0.625 0.453125 -0.96875 1.203125q-0.34375 0.734375 -0.34375 1.59375q0 0.890625 0.328125 1.65625q0.34375 0.765625 0.96875 1.21875q0.640625 0.4375 1.453125 0.4375zm13.787506 -4.390625l-1.5 0l0 -2.0l-1.953125 0l0 6.171875l1.9375 0l0 1.484375l-5.34375 0l0 -1.484375l1.921875 0l0 -6.171875l-1.953125 0l0 2.0l-1.484375 0l0 -3.5l8.375 0l0 3.5zm4.9437866 -2.0l-1.265625 0l0 2.203125l3.484375 0l0 -2.203125l-1.25 0l0 -1.5l3.9375 0l0 1.5l-1.21875 0l0 6.171875l1.21875 0l0 1.484375l-3.9375 0l0 -1.484375l1.25 0l0 -2.484375l-3.484375 0l0 2.484375l1.265625 0l0 1.484375l-3.953125 0l0 -1.484375l1.203125 0l0 -6.171875l-1.203125 0l0 -1.5l3.953125 0l0 1.5zm14.053131 1.890625l-1.484375 0l0 -1.890625l-3.828125 0l0 2.265625l1.703125 0l0 -1.0625l1.484375 0l0 3.59375l-1.484375 0l0 -1.0625l-1.703125 0l0 2.4375l3.828125 0l0 -1.859375l1.484375 0l0 3.34375l-8.046875 0l0 -1.484375l1.265625 0l0 -6.171875l-1.234375 0l0 -1.5l8.015625 0l0 3.390625zm9.131287 -0.703125q0 0.984375 -0.546875 1.640625q-0.546875 0.65625 -1.59375 0.90625l1.84375 2.4375l1.203125 0l0 1.484375l-2.140625 0q-0.375 -0.8125 -0.96875 -1.640625l-1.4375 -1.984375l-1.234375 0l0 2.140625l1.1875 0l0 1.484375l-3.921875 0l0 -1.484375l1.265625 0l0 -6.171875l-1.203125 0l0 -1.5l4.578125 0q1.515625 0 2.234375 0.796875q0.734375 0.78125 0.734375 1.890625zm-1.46875 0.015625q0 -0.609375 -0.359375 -0.90625q-0.34375 -0.296875 -1.0 -0.296875l-2.046875 0l0 2.53125l1.546875 0q0.9375 0 1.390625 -0.328125q0.46875 -0.328125 0.46875 -1.0z" fill-rule="nonzero"/><path fill="#000000" fill-opacity="0.0" d="m471.2367 49.444935l28.314972 28.125988" fill-rule="evenodd"/><path stroke="#999999" stroke-width="2.0" stroke-linejoin="round" stroke-linecap="butt" d="m471.2367 49.444935l28.314972 28.125988" fill-rule="evenodd"/><path fill="#000000" fill-opacity="0.0" d="m464.80035 49.444935l-32.6929 30.960629" fill-rule="evenodd"/><path stroke="#999999" stroke-width="2.0" stroke-linejoin="round" stroke-linecap="butt" d="m464.80035 49.444935l-32.6929 30.960629" fill-rule="evenodd"/><path fill="#000000" fill-opacity="0.0" d="m86.78083 140.39896l363.02362 0l0 61.543304l-363.02362 0z" fill-rule="evenodd"/><path fill="#000000" d="m98.24958 164.3527q-0.21875 0.25 -0.34375 0.328125q-0.125 0.0625 -0.3125 0.0625q-0.375 0 -0.59375 -0.25q-0.21875 -0.25 -0.21875 -0.8125l0 -1.078125q0 -0.578125 0.21875 -0.828125q0.21875 -0.25 0.59375 -0.25q0.28125 0 0.46875 0.15625q0.1875 0.140625 0.28125 0.5q0.109375 0.34375 0.21875 0.46875q0.234375 0.234375 0.8125 0.484375q0.578125 0.25 1.265625 0.25q1.0625 0 1.75 -0.5q0.4375 -0.296875 0.4375 -0.75q0 -0.296875 -0.21875 -0.546875q-0.203125 -0.265625 -0.671875 -0.4375q-0.3125 -0.125 -1.40625 -0.328125q-1.3125 -0.234375 -1.984375 -0.578125q-0.671875 -0.34375 -1.0625 -0.96875q-0.390625 -0.625 -0.390625 -1.359375q0 -1.140625 0.953125 -2.0q0.96875 -0.875 2.515625 -0.875q0.609375 0 1.140625 0.140625q0.53125 0.140625 0.953125 0.421875q0.3125 -0.3125 0.625 -0.3125q0.359375 0 0.578125 0.25q0.21875 0.25 0.21875 0.8125l0 1.203125q0 0.578125 -0.21875 0.828125q-0.21875 0.25 -0.578125 0.25q-0.296875 0 -0.515625 -0.1875q-0.171875 -0.125 -0.265625 -0.515625q-0.078125 -0.40625 -0.203125 -0.578125q-0.234375 -0.296875 -0.6875 -0.5q-0.453125 -0.203125 -1.046875 -0.203125q-0.859375 0 -1.375 0.40625q-0.5 0.390625 -0.5 0.828125q0 0.296875 0.203125 0.578125q0.21875 0.28125 0.609375 0.4375q0.265625 0.109375 1.5 0.359375q1.234375 0.234375 1.890625 0.53125q0.65625 0.28125 1.09375 0.90625q0.4375 0.609375 0.4375 1.453125q0 1.1875 -0.828125 1.90625q-1.109375 0.9375 -2.828125 0.9375q-0.671875 0 -1.296875 -0.171875q-0.625 -0.15625 -1.21875 -0.46875zm14.2265625 -4.953125q0.703125 0.484375 1.046875 1.125q0.359375 0.640625 0.359375 1.421875q0 0.859375 -0.46875 1.578125q-0.453125 0.71875 -1.34375 1.09375q-0.875 0.375 -2.3125 0.375q-1.859375 0 -2.796875 -0.578125q-0.515625 -0.328125 -0.515625 -0.78125q0 -0.34375 0.21875 -0.578125q0.234375 -0.25 0.5625 -0.25q0.234375 0 0.46875 0.15625q0.34375 0.234375 0.65625 0.3125q0.46875 0.109375 1.28125 0.109375q1.40625 0 2.03125 -0.359375q0.625 -0.359375 0.625 -1.03125q0 -0.484375 -0.375 -0.9375q-0.359375 -0.46875 -0.96875 -0.71875q-0.34375 -0.140625 -1.1875 -0.1875q-0.390625 -0.03125 -0.609375 -0.25q-0.21875 -0.21875 -0.21875 -0.546875q0 -0.34375 0.234375 -0.578125q0.234375 -0.234375 0.59375 -0.234375q0.796875 0 0.859375 -0.015625q0.3125 -0.03125 0.625 -0.203125q0.3125 -0.171875 0.5 -0.46875q0.1875 -0.296875 0.1875 -0.625q0 -0.5 -0.453125 -0.875q-0.4375 -0.375 -1.34375 -0.375q-1.15625 0 -1.765625 0.671875q-0.171875 0.203125 -0.28125 0.25q-0.171875 0.09375 -0.375 0.09375q-0.328125 0 -0.5625 -0.234375q-0.234375 -0.234375 -0.234375 -0.578125q0 -0.546875 0.71875 -1.046875q1.046875 -0.75 2.625 -0.75q1.484375 0 2.375 0.84375q0.90625 0.84375 0.90625 2.03125q0 0.625 -0.265625 1.15625q-0.265625 0.53125 -0.796875 0.984375zm8.5234375 -0.671875q0 0.453125 -0.328125 0.765625q-0.3125 0.296875 -0.875 0.296875q-0.5625 0 -0.890625 -0.296875q-0.3125 -0.3125 -0.3125 -0.765625q0 -0.453125 0.3125 -0.75q0.328125 -0.3125 0.890625 -0.3125q0.5625 0 0.875 0.3125q0.328125 0.296875 0.328125 0.75zm0.015625 5.25q0 0.453125 -0.328125 0.765625q-0.3125 0.296875 -0.875 0.296875q-0.5625 0 -0.890625 -0.296875q-0.3125 -0.3125 -0.3125 -0.765625q0 -0.453125 0.3125 -0.75q0.328125 -0.3125 0.890625 -0.3125q0.5625 0 0.875 0.3125q0.328125 0.296875 0.328125 0.75zm19.734383 -3.140625l-3.421875 0l0 2.3125l0.25 0q0.578125 0 0.8125 0.234375q0.25 0.21875 0.25 0.578125q0 0.34375 -0.25 0.578125q-0.234375 0.21875 -0.8125 0.21875l-1.96875 0q-0.578125 0 -0.828125 -0.21875q-0.234375 -0.234375 -0.234375 -0.59375q0 -0.4375 0.375 -0.671875q0.1875 -0.125 0.796875 -0.125l0 -6.265625q-0.421875 -0.03125 -0.640625 -0.25q-0.203125 -0.21875 -0.203125 -0.546875q0 -0.359375 0.234375 -0.578125q0.25 -0.234375 0.828125 -0.234375l1.640625 0.015625q0.578125 0 0.8125 0.21875q0.25 0.21875 0.25 0.578125q0 0.359375 -0.25 0.578125q-0.234375 0.21875 -0.8125 0.21875l-0.25 0l0 2.34375l3.421875 0l0 -2.34375l-0.25 0q-0.578125 0 -0.828125 -0.21875q-0.25 -0.21875 -0.25 -0.578125q0 -0.359375 0.25 -0.578125q0.25 -0.234375 0.828125 -0.234375l1.625 0.015625q0.578125 0 0.828125 0.21875q0.25 0.21875 0.25 0.578125q0 0.328125 -0.21875 0.546875q-0.21875 0.21875 -0.640625 0.25l0 6.265625q0.625 0 0.796875 0.125q0.390625 0.234375 0.390625 0.6875q0 0.34375 -0.25 0.578125q-0.25 0.21875 -0.828125 0.21875l-1.953125 0q-0.578125 0 -0.828125 -0.21875q-0.25 -0.234375 -0.25 -0.59375q0 -0.34375 0.25 -0.5625q0.25 -0.234375 0.828125 -0.234375l0.25 0l0 -2.3125zm11.8671875 1.1875l-6.578125 0q0.25 0.625 0.890625 1.015625q0.640625 0.375 1.71875 0.375q0.890625 0 2.375 -0.390625q0.609375 -0.15625 0.84375 -0.15625q0.3125 0 0.53125 0.234375q0.21875 0.21875 0.21875 0.5625q0 0.3125 -0.234375 0.53125q-0.3125 0.296875 -1.53125 0.5625q-1.203125 0.265625 -2.3125 0.265625q-1.921875 0 -3.078125 -1.09375q-1.15625 -1.09375 -1.15625 -2.671875q0 -1.6875 1.25 -2.75q1.25 -1.0625 2.875 -1.0625q0.96875 0 1.78125 0.34375q0.828125 0.34375 1.21875 0.75q0.5625 0.578125 0.9375 1.421875q0.25 0.59375 0.25 1.375l0 0.6875zm-1.78125 -1.609375q-0.359375 -0.6875 -0.953125 -1.015625q-0.59375 -0.34375 -1.421875 -0.34375q-0.8125 0 -1.40625 0.34375q-0.59375 0.328125 -0.96875 1.015625l4.75 0zm7.0234375 -2.75l0 1.0q1.015625 -0.734375 1.59375 -0.96875q0.578125 -0.25 1.09375 -0.25q0.78125 0 1.515625 0.578125q0.5 0.390625 0.5 0.796875q0 0.34375 -0.25 0.59375q-0.234375 0.234375 -0.5625 0.234375q-0.296875 0 -0.625 -0.296875q-0.328125 -0.296875 -0.59375 -0.296875q-0.328125 0 -1.0 0.421875q-0.671875 0.421875 -1.671875 1.265625l0 2.40625l2.28125 0q0.578125 0 0.828125 0.234375q0.25 0.21875 0.25 0.578125q0 0.34375 -0.25 0.578125q-0.25 0.21875 -0.828125 0.21875l-4.828125 0q-0.578125 0 -0.828125 -0.21875q-0.25 -0.234375 -0.25 -0.59375q0 -0.34375 0.25 -0.5625q0.25 -0.234375 0.828125 -0.234375l0.953125 0l0 -3.890625l-0.578125 0q-0.578125 0 -0.828125 -0.21875q-0.25 -0.21875 -0.25 -0.578125q0 -0.359375 0.25 -0.578125q0.25 -0.21875 0.828125 -0.21875l2.171875 0zm7.4609375 0l0 0.453125q0.390625 -0.390625 0.703125 -0.53125q0.328125 -0.140625 0.734375 -0.140625q0.359375 0 0.703125 0.171875q0.34375 0.171875 0.671875 0.515625q0.40625 -0.34375 0.828125 -0.515625q0.4375 -0.171875 0.875 -0.171875q0.890625 0 1.453125 0.484375q0.734375 0.625 0.734375 1.640625l0 3.578125q0.5 0 0.734375 0.234375q0.25 0.21875 0.25 0.578125q0 0.34375 -0.25 0.578125q-0.234375 0.21875 -0.8125 0.21875l-1.53125 0l0 -5.0625q0 -0.359375 -0.140625 -0.5q-0.125 -0.140625 -0.390625 -0.140625q-0.265625 0 -0.5 0.140625q-0.28125 0.1875 -0.703125 0.734375l0 3.21875q0.5 0 0.734375 0.234375q0.25 0.21875 0.25 0.578125q0 0.34375 -0.25 0.578125q-0.234375 0.21875 -0.8125 0.21875l-1.515625 0l0 -5.0625q0 -0.359375 -0.140625 -0.5q-0.140625 -0.140625 -0.40625 -0.140625q-0.28125 0 -0.5625 0.171875q-0.265625 0.171875 -0.65625 0.703125l0 3.21875q0.5 0 0.75 0.234375q0.25 0.21875 0.25 0.578125q0 0.34375 -0.25 0.578125q-0.25 0.21875 -0.828125 0.21875l-1.4375 0q-0.578125 0 -0.828125 -0.21875q-0.25 -0.234375 -0.25 -0.59375q0 -0.34375 0.25 -0.5625q0.234375 -0.234375 0.75 -0.234375l0 -3.890625q-0.515625 0 -0.75 -0.21875q-0.25 -0.234375 -0.25 -0.578125q0 -0.359375 0.25 -0.578125q0.25 -0.21875 0.828125 -0.21875l1.515625 0zm13.5234375 7.09375l0 -0.375q-0.609375 0.3125 -1.34375 0.46875q-0.71875 0.171875 -1.3125 0.171875q-1.28125 0 -2.09375 -0.6875q-0.796875 -0.6875 -0.796875 -1.515625q0 -1.0 1.015625 -1.859375q1.03125 -0.875 2.84375 -0.875q0.734375 0 1.6875 0.15625l0 -0.375q0 -0.359375 -0.3125 -0.578125q-0.3125 -0.234375 -1.171875 -0.234375q-0.71875 0 -1.84375 0.28125q-0.421875 0.09375 -0.65625 0.09375q-0.328125 0 -0.546875 -0.21875q-0.21875 -0.234375 -0.21875 -0.59375q0 -0.203125 0.078125 -0.34375q0.078125 -0.15625 0.21875 -0.25q0.140625 -0.09375 0.578125 -0.21875q0.59375 -0.15625 1.203125 -0.25q0.625 -0.109375 1.125 -0.109375q1.5 0 2.3125 0.65625q0.828125 0.640625 0.828125 1.75l0 3.296875l0.28125 0q0.578125 0 0.8125 0.234375q0.25 0.21875 0.25 0.578125q0 0.34375 -0.25 0.578125q-0.234375 0.21875 -0.8125 0.21875l-1.875 0zm0 -2.875q-0.96875 -0.1875 -1.78125 -0.1875q-0.96875 0 -1.671875 0.484375q-0.4375 0.296875 -0.4375 0.609375q0 0.234375 0.203125 0.375q0.390625 0.25 1.078125 0.25q0.578125 0 1.296875 -0.21875q0.734375 -0.234375 1.3125 -0.625l0 -0.6875zm6.5390625 -4.21875l0 0.53125q0.4375 -0.375 0.953125 -0.5625q0.53125 -0.1875 1.15625 -0.1875q1.421875 0 2.25 0.890625q0.65625 0.703125 0.65625 1.84375l0 2.96875q0.5 0 0.734375 0.234375q0.25 0.21875 0.25 0.578125q0 0.34375 -0.25 0.578125q-0.234375 0.21875 -0.8125 0.21875l-1.453125 0q-0.578125 0 -0.828125 -0.21875q-0.234375 -0.234375 -0.234375 -0.59375q0 -0.34375 0.234375 -0.5625q0.25 -0.234375 0.75 -0.234375l0 -3.015625q0 -0.53125 -0.28125 -0.765625q-0.359375 -0.3125 -1.09375 -0.3125q-0.5625 0 -0.984375 0.21875q-0.40625 0.203125 -1.046875 0.90625l0 2.96875q0.609375 0 0.796875 0.125q0.375 0.234375 0.375 0.6875q0 0.34375 -0.25 0.578125q-0.234375 0.21875 -0.8125 0.21875l-1.828125 0q-0.578125 0 -0.828125 -0.21875q-0.234375 -0.234375 -0.234375 -0.59375q0 -0.4375 0.375 -0.671875q0.1875 -0.125 0.796875 -0.125l0 -3.890625q-0.5 0 -0.75 -0.21875q-0.234375 -0.234375 -0.234375 -0.578125q0 -0.359375 0.234375 -0.578125q0.25 -0.21875 0.828125 -0.21875l1.53125 0zm9.6015625 0l0 0.53125q0.4375 -0.375 0.953125 -0.5625q0.53125 -0.1875 1.15625 -0.1875q1.421875 0 2.25 0.890625q0.65625 0.703125 0.65625 1.84375l0 2.96875q0.5 0 0.734375 0.234375q0.25 0.21875 0.25 0.578125q0 0.34375 -0.25 0.578125q-0.234375 0.21875 -0.8125 0.21875l-1.453125 0q-0.578125 0 -0.828125 -0.21875q-0.234375 -0.234375 -0.234375 -0.59375q0 -0.34375 0.234375 -0.5625q0.25 -0.234375 0.75 -0.234375l0 -3.015625q0 -0.53125 -0.28125 -0.765625q-0.359375 -0.3125 -1.09375 -0.3125q-0.5625 0 -0.984375 0.21875q-0.40625 0.203125 -1.046875 0.90625l0 2.96875q0.609375 0 0.796875 0.125q0.375 0.234375 0.375 0.6875q0 0.34375 -0.25 0.578125q-0.234375 0.21875 -0.8125 0.21875l-1.828125 0q-0.578125 0 -0.828125 -0.21875q-0.234375 -0.234375 -0.234375 -0.59375q0 -0.4375 0.375 -0.671875q0.1875 -0.125 0.796875 -0.125l0 -3.890625q-0.5 0 -0.75 -0.21875q-0.234375 -0.234375 -0.234375 -0.578125q0 -0.359375 0.234375 -0.578125q0.25 -0.21875 0.828125 -0.21875l1.53125 0zm21.390625 -3.046875l0 1.703125l-1.90625 0l0 -1.703125l1.90625 0zm0.21875 3.046875l0 5.484375l1.921875 0q0.578125 0 0.828125 0.234375q0.25 0.21875 0.25 0.578125q0 0.34375 -0.25 0.578125q-0.25 0.21875 -0.828125 0.21875l-5.4375 0q-0.578125 0 -0.828125 -0.21875q-0.25 -0.234375 -0.25 -0.59375q0 -0.34375 0.25 -0.5625q0.25 -0.234375 0.828125 -0.234375l1.921875 0l0 -3.890625l-1.296875 0q-0.5625 0 -0.8125 -0.21875q-0.25 -0.21875 -0.25 -0.578125q0 -0.359375 0.234375 -0.578125q0.25 -0.21875 0.828125 -0.21875l2.890625 0zm10.5390625 1.875q-0.390625 -0.25 -0.828125 -0.359375q-0.421875 -0.125 -0.890625 -0.125q-0.921875 0 -1.46875 0.296875q-0.25 0.140625 -0.25 0.296875q0 0.171875 0.328125 0.34375q0.25 0.125 1.125 0.25q1.59375 0.21875 2.21875 0.4375q0.8125 0.28125 1.25 0.859375q0.453125 0.5625 0.453125 1.203125q0 0.859375 -0.75 1.4375q-1.09375 0.84375 -2.828125 0.84375q-0.6875 0 -1.28125 -0.125q-0.59375 -0.125 -1.078125 -0.359375q-0.125 0.09375 -0.265625 0.15625q-0.125 0.046875 -0.265625 0.046875q-0.375 0 -0.59375 -0.234375q-0.21875 -0.25 -0.21875 -0.828125l0 -0.546875q0 -0.578125 0.21875 -0.8125q0.21875 -0.25 0.578125 -0.25q0.296875 0 0.484375 0.15625q0.203125 0.15625 0.3125 0.546875q0.359375 0.3125 0.875 0.484375q0.515625 0.15625 1.1875 0.15625q1.109375 0 1.71875 -0.34375q0.28125 -0.171875 0.28125 -0.359375q0 -0.3125 -0.40625 -0.515625q-0.421875 -0.203125 -1.71875 -0.34375q-1.921875 -0.203125 -2.578125 -0.78125q-0.640625 -0.578125 -0.640625 -1.40625q0 -0.859375 0.71875 -1.4375q0.984375 -0.78125 2.578125 -0.78125q0.5625 0 1.0625 0.109375q0.515625 0.109375 0.984375 0.328125q0.15625 -0.109375 0.28125 -0.15625q0.125 -0.0625 0.234375 -0.0625q0.328125 0 0.546875 0.25q0.21875 0.234375 0.21875 0.8125l0 0.390625q0 0.53125 -0.125 0.71875q-0.25 0.359375 -0.671875 0.359375q-0.296875 0 -0.515625 -0.171875q-0.21875 -0.1875 -0.28125 -0.484375zm18.921875 5.21875l0 -0.375q-0.609375 0.3125 -1.34375 0.46875q-0.71875 0.171875 -1.3125 0.171875q-1.28125 0 -2.09375 -0.6875q-0.796875 -0.6875 -0.796875 -1.515625q0 -1.0 1.015625 -1.859375q1.03125 -0.875 2.84375 -0.875q0.734375 0 1.6875 0.15625l0 -0.375q0 -0.359375 -0.3125 -0.578125q-0.3125 -0.234375 -1.171875 -0.234375q-0.71875 0 -1.84375 0.28125q-0.421875 0.09375 -0.65625 0.09375q-0.328125 0 -0.546875 -0.21875q-0.21875 -0.234375 -0.21875 -0.59375q0 -0.203125 0.078125 -0.34375q0.078125 -0.15625 0.21875 -0.25q0.140625 -0.09375 0.578125 -0.21875q0.59375 -0.15625 1.203125 -0.25q0.625 -0.109375 1.125 -0.109375q1.5 0 2.3125 0.65625q0.828125 0.640625 0.828125 1.75l0 3.296875l0.28125 0q0.578125 0 0.8125 0.234375q0.25 0.21875 0.25 0.578125q0 0.34375 -0.25 0.578125q-0.234375 0.21875 -0.8125 0.21875l-1.875 0zm0 -2.875q-0.96875 -0.1875 -1.78125 -0.1875q-0.96875 0 -1.671875 0.484375q-0.4375 0.296875 -0.4375 0.609375q0 0.234375 0.203125 0.375q0.390625 0.25 1.078125 0.25q0.578125 0 1.296875 -0.21875q0.734375 -0.234375 1.3125 -0.625l0 -0.6875z" fill-rule="nonzero"/><path fill="#0000ff" d="m261.8199 163.86833l0 2.640625l0.96875 0q0.578125 0 0.8125 0.21875q0.25 0.21875 0.25 0.578125q0 0.359375 -0.25 0.578125q-0.234375 0.21875 -0.8125 0.21875l-2.84375 0q-0.578125 0 -0.828125 -0.21875q-0.25 -0.21875 -0.25 -0.578125q0 -0.359375 0.25 -0.578125q0.265625 -0.21875 0.828125 -0.21875l0.28125 0l0 -7.25l-0.28125 0q-0.578125 0 -0.828125 -0.21875q-0.25 -0.21875 -0.25 -0.578125q0 -0.359375 0.25 -0.578125q0.25 -0.21875 0.828125 -0.21875l1.875 0l0 0.546875q0.5625 -0.390625 1.15625 -0.578125q0.609375 -0.1875 1.25 -0.1875q1.640625 0 2.796875 1.125q1.15625 1.109375 1.15625 2.546875q0 1.578125 -1.375 2.609375q-1.140625 0.859375 -2.5625 0.859375q-0.625 0 -1.234375 -0.171875q-0.59375 -0.1875 -1.1875 -0.546875zm4.75 -2.75q0 -0.328125 -0.265625 -0.84375q-0.265625 -0.53125 -0.8125 -0.875q-0.546875 -0.34375 -1.296875 -0.34375q-1.1875 0 -1.890625 0.890625q-0.484375 0.625 -0.484375 1.1875q0 0.640625 0.6875 1.25q0.6875 0.609375 1.6875 0.609375q1.015625 0 1.6875 -0.59375q0.6875 -0.609375 0.6875 -1.28125zm8.2890625 3.640625l0 -0.375q-0.609375 0.3125 -1.34375 0.46875q-0.71875 0.171875 -1.3125 0.171875q-1.28125 0 -2.09375 -0.6875q-0.796875 -0.6875 -0.796875 -1.515625q0 -1.0 1.015625 -1.859375q1.03125 -0.875 2.84375 -0.875q0.734375 0 1.6875 0.15625l0 -0.375q0 -0.359375 -0.3125 -0.578125q-0.3125 -0.234375 -1.171875 -0.234375q-0.71875 0 -1.84375 0.28125q-0.421875 0.09375 -0.65625 0.09375q-0.328125 0 -0.546875 -0.21875q-0.21875 -0.234375 -0.21875 -0.59375q0 -0.203125 0.078125 -0.34375q0.078125 -0.15625 0.21875 -0.25q0.140625 -0.09375 0.578125 -0.21875q0.59375 -0.15625 1.203125 -0.25q0.625 -0.109375 1.125 -0.109375q1.5 0 2.3125 0.65625q0.828125 0.640625 0.828125 1.75l0 3.296875l0.28125 0q0.578125 0 0.8125 0.234375q0.25 0.21875 0.25 0.578125q0 0.34375 -0.25 0.578125q-0.234375 0.21875 -0.8125 0.21875l-1.875 0zm0 -2.875q-0.96875 -0.1875 -1.78125 -0.1875q-0.96875 0 -1.671875 0.484375q-0.4375 0.296875 -0.4375 0.609375q0 0.234375 0.203125 0.375q0.390625 0.25 1.078125 0.25q0.578125 0 1.296875 -0.21875q0.734375 -0.234375 1.3125 -0.625l0 -0.6875zm7.8203125 -4.21875l0 1.0q1.015625 -0.734375 1.59375 -0.96875q0.578125 -0.25 1.09375 -0.25q0.78125 0 1.515625 0.578125q0.5 0.390625 0.5 0.796875q0 0.34375 -0.25 0.59375q-0.234375 0.234375 -0.5625 0.234375q-0.296875 0 -0.625 -0.296875q-0.328125 -0.296875 -0.59375 -0.296875q-0.328125 0 -1.0 0.421875q-0.671875 0.421875 -1.671875 1.265625l0 2.40625l2.28125 0q0.578125 0 0.828125 0.234375q0.25 0.21875 0.25 0.578125q0 0.34375 -0.25 0.578125q-0.25 0.21875 -0.828125 0.21875l-4.828125 0q-0.578125 0 -0.828125 -0.21875q-0.25 -0.234375 -0.25 -0.59375q0 -0.34375 0.25 -0.5625q0.25 -0.234375 0.828125 -0.234375l0.953125 0l0 -3.890625l-0.578125 0q-0.578125 0 -0.828125 -0.21875q-0.25 -0.21875 -0.25 -0.578125q0 -0.359375 0.25 -0.578125q0.25 -0.21875 0.828125 -0.21875l2.171875 0zm13.9609375 4.359375l-6.578125 0q0.25 0.625 0.890625 1.015625q0.640625 0.375 1.71875 0.375q0.890625 0 2.375 -0.390625q0.609375 -0.15625 0.84375 -0.15625q0.3125 0 0.53125 0.234375q0.21875 0.21875 0.21875 0.5625q0 0.3125 -0.234375 0.53125q-0.3125 0.296875 -1.53125 0.5625q-1.203125 0.265625 -2.3125 0.265625q-1.921875 0 -3.078125 -1.09375q-1.15625 -1.09375 -1.15625 -2.671875q0 -1.6875 1.25 -2.75q1.25 -1.0625 2.875 -1.0625q0.96875 0 1.78125 0.34375q0.828125 0.34375 1.21875 0.75q0.5625 0.578125 0.9375 1.421875q0.25 0.59375 0.25 1.375l0 0.6875zm-1.78125 -1.609375q-0.359375 -0.6875 -0.953125 -1.015625q-0.59375 -0.34375 -1.421875 -0.34375q-0.8125 0 -1.40625 0.34375q-0.59375 0.328125 -0.96875 1.015625l4.75 0zm5.7421875 -2.75l0 0.53125q0.4375 -0.375 0.953125 -0.5625q0.53125 -0.1875 1.15625 -0.1875q1.421875 0 2.25 0.890625q0.65625 0.703125 0.65625 1.84375l0 2.96875q0.5 0 0.734375 0.234375q0.25 0.21875 0.25 0.578125q0 0.34375 -0.25 0.578125q-0.234375 0.21875 -0.8125 0.21875l-1.453125 0q-0.578125 0 -0.828125 -0.21875q-0.234375 -0.234375 -0.234375 -0.59375q0 -0.34375 0.234375 -0.5625q0.25 -0.234375 0.75 -0.234375l0 -3.015625q0 -0.53125 -0.28125 -0.765625q-0.359375 -0.3125 -1.09375 -0.3125q-0.5625 0 -0.984375 0.21875q-0.40625 0.203125 -1.046875 0.90625l0 2.96875q0.609375 0 0.796875 0.125q0.375 0.234375 0.375 0.6875q0 0.34375 -0.25 0.578125q-0.234375 0.21875 -0.8125 0.21875l-1.828125 0q-0.578125 0 -0.828125 -0.21875q-0.234375 -0.234375 -0.234375 -0.59375q0 -0.4375 0.375 -0.671875q0.1875 -0.125 0.796875 -0.125l0 -3.890625q-0.5 0 -0.75 -0.21875q-0.234375 -0.234375 -0.234375 -0.578125q0 -0.359375 0.234375 -0.578125q0.25 -0.21875 0.828125 -0.21875l1.53125 0zm10.8203125 1.59375l0 3.21875q0 0.515625 0.21875 0.671875q0.328125 0.265625 1.171875 0.265625q1.21875 0 2.265625 -0.53125q0.390625 -0.203125 0.625 -0.203125q0.3125 0 0.53125 0.234375q0.234375 0.234375 0.234375 0.578125q0 0.3125 -0.25 0.53125q-0.375 0.375 -1.515625 0.6875q-1.125 0.3125 -1.890625 0.3125q-1.5 0 -2.25 -0.640625q-0.734375 -0.65625 -0.734375 -1.59375l0 -3.53125l-0.578125 0q-0.578125 0 -0.828125 -0.21875q-0.25 -0.21875 -0.25 -0.578125q0 -0.359375 0.25 -0.578125q0.25 -0.21875 0.828125 -0.21875l0.578125 0l0 -1.453125q0 -0.578125 0.21875 -0.8125q0.21875 -0.25 0.578125 -0.25q0.359375 0 0.578125 0.25q0.21875 0.234375 0.21875 0.8125l0 1.453125l2.96875 0q0.578125 0 0.8125 0.21875q0.25 0.21875 0.25 0.578125q0 0.359375 -0.25 0.578125q-0.234375 0.21875 -0.8125 0.21875l-2.96875 0z" fill-rule="nonzero"/><path fill="#000000" d="m335.18707 161.33708q0 0.921875 -0.515625 1.796875q-0.515625 0.859375 -1.53125 1.375q-1.0 0.515625 -2.109375 0.515625q-1.09375 0 -2.09375 -0.5q-1.0 -0.515625 -1.53125 -1.375q-0.515625 -0.875 -0.515625 -1.828125q0 -0.953125 0.53125 -1.875q0.53125 -0.9375 1.53125 -1.46875q1.0 -0.53125 2.078125 -0.53125q1.09375 0 2.109375 0.546875q1.015625 0.546875 1.53125 1.46875q0.515625 0.90625 0.515625 1.875zm-1.609375 0.015625q0 -0.78125 -0.546875 -1.421875q-0.765625 -0.875 -2.0 -0.875q-1.078125 0 -1.8125 0.703125q-0.71875 0.6875 -0.71875 1.59375q0 0.75 0.734375 1.40625q0.734375 0.65625 1.796875 0.65625q1.078125 0 1.8125 -0.65625q0.734375 -0.65625 0.734375 -1.40625zm7.0390625 -2.09375l0 3.890625l2.28125 0q0.578125 0 0.8125 0.234375q0.25 0.21875 0.25 0.578125q0 0.34375 -0.25 0.578125q-0.234375 0.21875 -0.8125 0.21875l-4.84375 0q-0.578125 0 -0.828125 -0.21875q-0.234375 -0.234375 -0.234375 -0.59375q0 -0.34375 0.234375 -0.5625q0.25 -0.234375 0.828125 -0.234375l0.953125 0l0 -3.890625l-0.765625 0q-0.578125 0 -0.828125 -0.21875q-0.234375 -0.21875 -0.234375 -0.578125q0 -0.359375 0.234375 -0.578125q0.25 -0.21875 0.828125 -0.21875l0.765625 0l0 -0.609375q0 -1.046875 0.78125 -1.734375q0.796875 -0.703125 2.28125 -0.703125q0.671875 0 1.53125 0.125q0.875 0.125 1.125 0.34375q0.25 0.21875 0.25 0.5625q0 0.359375 -0.21875 0.59375q-0.21875 0.234375 -0.546875 0.234375q-0.140625 0 -0.4375 -0.0625q-1.0 -0.1875 -1.765625 -0.1875q-0.796875 0 -1.09375 0.234375q-0.296875 0.234375 -0.296875 0.59375l0 0.609375l2.46875 0q0.578125 0 0.8125 0.21875q0.25 0.21875 0.25 0.578125q0 0.359375 -0.25 0.578125q-0.234375 0.21875 -0.8125 0.21875l-2.46875 0zm21.171875 2.921875l-3.890625 0l-0.390625 0.96875l0.390625 0q0.578125 0 0.8125 0.234375q0.25 0.21875 0.25 0.578125q0 0.34375 -0.25 0.578125q-0.234375 0.21875 -0.8125 0.21875l-2.15625 0q-0.578125 0 -0.828125 -0.21875q-0.25 -0.234375 -0.25 -0.59375q0 -0.359375 0.265625 -0.578125q0.25 -0.234375 0.84375 -0.21875l2.515625 -6.265625l-1.046875 0q-0.578125 0 -0.828125 -0.21875q-0.234375 -0.21875 -0.234375 -0.578125q0 -0.359375 0.234375 -0.578125q0.25 -0.234375 0.828125 -0.234375l3.46875 0.015625l3.1875 7.859375q0.5625 0 0.734375 0.125q0.359375 0.265625 0.359375 0.6875q0 0.34375 -0.25 0.578125q-0.234375 0.21875 -0.8125 0.21875l-2.15625 0q-0.578125 0 -0.828125 -0.21875q-0.234375 -0.234375 -0.234375 -0.59375q0 -0.34375 0.234375 -0.5625q0.25 -0.234375 0.828125 -0.234375l0.390625 0l-0.375 -0.96875zm-0.671875 -1.609375l-1.28125 -3.171875l-1.296875 3.171875l2.578125 0zm9.1171875 -5.953125l0 8.53125l1.921875 0q0.578125 0 0.8125 0.234375q0.25 0.21875 0.25 0.578125q0 0.34375 -0.25 0.578125q-0.234375 0.21875 -0.8125 0.21875l-5.453125 0q-0.578125 0 -0.828125 -0.21875q-0.234375 -0.234375 -0.234375 -0.59375q0 -0.34375 0.234375 -0.5625q0.25 -0.234375 0.828125 -0.234375l1.921875 0l0 -6.921875l-1.28125 0q-0.578125 0 -0.828125 -0.21875q-0.25 -0.234375 -0.25 -0.59375q0 -0.34375 0.25 -0.5625q0.25 -0.234375 0.828125 -0.234375l2.890625 0zm6.7734375 0l0 3.59375q0.59375 -0.375 1.1875 -0.5625q0.609375 -0.203125 1.234375 -0.203125q1.65625 0 2.8125 1.15625q1.15625 1.140625 1.15625 2.765625q0 1.5625 -1.109375 2.609375q-1.09375 1.046875 -2.890625 1.046875q-0.640625 0 -1.234375 -0.171875q-0.59375 -0.171875 -1.15625 -0.484375l0 0.390625l-1.875 0q-0.578125 0 -0.828125 -0.21875q-0.25 -0.234375 -0.25 -0.59375q0 -0.34375 0.25 -0.5625q0.265625 -0.234375 0.828125 -0.234375l0.28125 0l0 -6.921875l-0.28125 0q-0.578125 0 -0.828125 -0.21875q-0.25 -0.234375 -0.25 -0.59375q0 -0.34375 0.25 -0.5625q0.25 -0.234375 0.828125 -0.234375l1.875 0zm4.796875 6.796875q0 -0.984375 -0.703125 -1.671875q-0.6875 -0.6875 -1.703125 -0.6875q-1.0 0 -1.703125 0.6875q-0.6875 0.6875 -0.6875 1.65625q0 0.875 0.625 1.453125q0.625 0.5625 1.765625 0.5625q1.140625 0 1.765625 -0.5625q0.640625 -0.578125 0.640625 -1.4375zm10.8515625 0.609375l-6.578125 0q0.25 0.625 0.890625 1.015625q0.640625 0.375 1.71875 0.375q0.890625 0 2.375 -0.390625q0.609375 -0.15625 0.84375 -0.15625q0.3125 0 0.53125 0.234375q0.21875 0.21875 0.21875 0.5625q0 0.3125 -0.234375 0.53125q-0.3125 0.296875 -1.53125 0.5625q-1.203125 0.265625 -2.3125 0.265625q-1.921875 0 -3.078125 -1.09375q-1.15625 -1.09375 -1.15625 -2.671875q0 -1.6875 1.25 -2.75q1.25 -1.0625 2.875 -1.0625q0.96875 0 1.78125 0.34375q0.828125 0.34375 1.21875 0.75q0.5625 0.578125 0.9375 1.421875q0.25 0.59375 0.25 1.375l0 0.6875zm-1.78125 -1.609375q-0.359375 -0.6875 -0.953125 -1.015625q-0.59375 -0.34375 -1.421875 -0.34375q-0.8125 0 -1.40625 0.34375q-0.59375 0.328125 -0.96875 1.015625l4.75 0zm7.0234375 -2.75l0 1.0q1.015625 -0.734375 1.59375 -0.96875q0.578125 -0.25 1.09375 -0.25q0.78125 0 1.515625 0.578125q0.5 0.390625 0.5 0.796875q0 0.34375 -0.25 0.59375q-0.234375 0.234375 -0.5625 0.234375q-0.296875 0 -0.625 -0.296875q-0.328125 -0.296875 -0.59375 -0.296875q-0.328125 0 -1.0 0.421875q-0.671875 0.421875 -1.671875 1.265625l0 2.40625l2.28125 0q0.578125 0 0.828125 0.234375q0.25 0.21875 0.25 0.578125q0 0.34375 -0.25 0.578125q-0.25 0.21875 -0.828125 0.21875l-4.828125 0q-0.578125 0 -0.828125 -0.21875q-0.25 -0.234375 -0.25 -0.59375q0 -0.34375 0.25 -0.5625q0.25 -0.234375 0.828125 -0.234375l0.953125 0l0 -3.890625l-0.578125 0q-0.578125 0 -0.828125 -0.21875q-0.25 -0.21875 -0.25 -0.578125q0 -0.359375 0.25 -0.578125q0.25 -0.21875 0.828125 -0.21875l2.171875 0zm9.5390625 1.59375l0 3.21875q0 0.515625 0.21875 0.671875q0.328125 0.265625 1.171875 0.265625q1.21875 0 2.265625 -0.53125q0.390625 -0.203125 0.625 -0.203125q0.3125 0 0.53125 0.234375q0.234375 0.234375 0.234375 0.578125q0 0.3125 -0.25 0.53125q-0.375 0.375 -1.515625 0.6875q-1.125 0.3125 -1.890625 0.3125q-1.5 0 -2.25 -0.640625q-0.734375 -0.65625 -0.734375 -1.59375l0 -3.53125l-0.578125 0q-0.578125 0 -0.828125 -0.21875q-0.25 -0.21875 -0.25 -0.578125q0 -0.359375 0.25 -0.578125q0.25 -0.21875 0.828125 -0.21875l0.578125 0l0 -1.453125q0 -0.578125 0.21875 -0.8125q0.21875 -0.25 0.578125 -0.25q0.359375 0 0.578125 0.25q0.21875 0.234375 0.21875 0.8125l0 1.453125l2.96875 0q0.578125 0 0.8125 0.21875q0.25 0.21875 0.25 0.578125q0 0.359375 -0.25 0.578125q-0.234375 0.21875 -0.8125 0.21875l-2.96875 0zm11.2265625 4.6875q0 0.453125 -0.328125 0.765625q-0.3125 0.3125 -0.875 0.3125q-0.5625 0 -0.890625 -0.3125q-0.3125 -0.3125 -0.3125 -0.765625q0 -0.453125 0.3125 -0.75q0.328125 -0.3125 0.890625 -0.3125q0.5625 0 0.875 0.3125q0.328125 0.296875 0.328125 0.75z" fill-rule="nonzero"/><path fill="#000000" d="m98.24958 183.3527q-0.21875 0.25 -0.34375 0.328125q-0.125 0.0625 -0.3125 0.0625q-0.375 0 -0.59375 -0.25q-0.21875 -0.25 -0.21875 -0.8125l0 -1.078125q0 -0.578125 0.21875 -0.828125q0.21875 -0.25 0.59375 -0.25q0.28125 0 0.46875 0.15625q0.1875 0.140625 0.28125 0.5q0.109375 0.34375 0.21875 0.46875q0.234375 0.234375 0.8125 0.484375q0.578125 0.25 1.265625 0.25q1.0625 0 1.75 -0.5q0.4375 -0.296875 0.4375 -0.75q0 -0.296875 -0.21875 -0.546875q-0.203125 -0.265625 -0.671875 -0.4375q-0.3125 -0.125 -1.40625 -0.328125q-1.3125 -0.234375 -1.984375 -0.578125q-0.671875 -0.34375 -1.0625 -0.96875q-0.390625 -0.625 -0.390625 -1.359375q0 -1.140625 0.953125 -2.0q0.96875 -0.875 2.515625 -0.875q0.609375 0 1.140625 0.140625q0.53125 0.140625 0.953125 0.421875q0.3125 -0.3125 0.625 -0.3125q0.359375 0 0.578125 0.25q0.21875 0.25 0.21875 0.8125l0 1.203125q0 0.578125 -0.21875 0.828125q-0.21875 0.25 -0.578125 0.25q-0.296875 0 -0.515625 -0.1875q-0.171875 -0.125 -0.265625 -0.515625q-0.078125 -0.40625 -0.203125 -0.578125q-0.234375 -0.296875 -0.6875 -0.5q-0.453125 -0.203125 -1.046875 -0.203125q-0.859375 0 -1.375 0.40625q-0.5 0.390625 -0.5 0.828125q0 0.296875 0.203125 0.578125q0.21875 0.28125 0.609375 0.4375q0.265625 0.109375 1.5 0.359375q1.234375 0.234375 1.890625 0.53125q0.65625 0.28125 1.09375 0.90625q0.4375 0.609375 0.4375 1.453125q0 1.1875 -0.828125 1.90625q-1.109375 0.9375 -2.828125 0.9375q-0.671875 0 -1.296875 -0.171875q-0.625 -0.15625 -1.21875 -0.46875zm14.2890625 -9.703125l0 6.265625q0.5 0 0.734375 0.21875q0.25 0.21875 0.25 0.578125q0 0.34375 -0.25 0.578125q-0.234375 0.21875 -0.734375 0.21875l0 0.640625q0.5 0 0.734375 0.234375q0.25 0.21875 0.25 0.578125q0 0.34375 -0.25 0.578125q-0.234375 0.21875 -0.8125 0.21875l-2.15625 0q-0.578125 0 -0.828125 -0.21875q-0.234375 -0.234375 -0.234375 -0.59375q0 -0.34375 0.234375 -0.5625q0.25 -0.234375 0.828125 -0.234375l0.625 0l0 -0.640625l-4.34375 0l0 -1.328125l3.828125 -6.53125l2.125 0zm-1.609375 6.265625l0 -3.9375l-2.3125 3.9375l2.3125 0zm10.0703125 -2.1875q0 0.453125 -0.328125 0.765625q-0.3125 0.296875 -0.875 0.296875q-0.5625 0 -0.890625 -0.296875q-0.3125 -0.3125 -0.3125 -0.765625q0 -0.453125 0.3125 -0.75q0.328125 -0.3125 0.890625 -0.3125q0.5625 0 0.875 0.3125q0.328125 0.296875 0.328125 0.75zm0.015625 5.25q0 0.453125 -0.328125 0.765625q-0.3125 0.296875 -0.875 0.296875q-0.5625 0 -0.890625 -0.296875q-0.3125 -0.3125 -0.3125 -0.765625q0 -0.453125 0.3125 -0.75q0.328125 -0.3125 0.890625 -0.3125q0.5625 0 0.875 0.3125q0.328125 0.296875 0.328125 0.75zm17.046883 -2.46875l0 1.640625l1.625 0q0.578125 0 0.8125 0.234375q0.25 0.21875 0.25 0.578125q0 0.34375 -0.25 0.578125q-0.234375 0.21875 -0.8125 0.21875l-3.46875 0q-0.578125 0 -0.828125 -0.21875q-0.25 -0.234375 -0.25 -0.59375q0 -0.34375 0.25 -0.5625q0.25 -0.234375 0.828125 -0.234375l0.25 0l0 -6.265625l-0.25 0q-0.578125 0 -0.828125 -0.21875q-0.25 -0.21875 -0.25 -0.578125q0 -0.359375 0.25 -0.578125q0.25 -0.234375 0.828125 -0.234375l3.6875 0.015625q1.625 0 2.5625 0.890625q0.953125 0.875 0.953125 2.15625q0 0.703125 -0.3125 1.328125q-0.25 0.46875 -0.8125 0.921875q-0.5625 0.453125 -1.15625 0.6875q-0.59375 0.234375 -1.5625 0.234375l-1.515625 0zm0 -1.609375l1.484375 0q1.046875 0 1.65625 -0.46875q0.625 -0.46875 0.625 -1.140625q0 -0.5625 -0.5 -0.984375q-0.5 -0.421875 -1.421875 -0.421875l-1.84375 0l0 3.015625zm11.9765625 4.859375l0 -0.375q-0.609375 0.3125 -1.34375 0.46875q-0.71875 0.171875 -1.3125 0.171875q-1.28125 0 -2.09375 -0.6875q-0.796875 -0.6875 -0.796875 -1.515625q0 -1.0 1.015625 -1.859375q1.03125 -0.875 2.84375 -0.875q0.734375 0 1.6875 0.15625l0 -0.375q0 -0.359375 -0.3125 -0.578125q-0.3125 -0.234375 -1.171875 -0.234375q-0.71875 0 -1.84375 0.28125q-0.421875 0.09375 -0.65625 0.09375q-0.328125 0 -0.546875 -0.21875q-0.21875 -0.234375 -0.21875 -0.59375q0 -0.203125 0.078125 -0.34375q0.078125 -0.15625 0.21875 -0.25q0.140625 -0.09375 0.578125 -0.21875q0.59375 -0.15625 1.203125 -0.25q0.625 -0.109375 1.125 -0.109375q1.5 0 2.3125 0.65625q0.828125 0.640625 0.828125 1.75l0 3.296875l0.28125 0q0.578125 0 0.8125 0.234375q0.25 0.21875 0.25 0.578125q0 0.34375 -0.25 0.578125q-0.234375 0.21875 -0.8125 0.21875l-1.875 0zm0 -2.875q-0.96875 -0.1875 -1.78125 -0.1875q-0.96875 0 -1.671875 0.484375q-0.4375 0.296875 -0.4375 0.609375q0 0.234375 0.203125 0.375q0.390625 0.25 1.078125 0.25q0.578125 0 1.296875 -0.21875q0.734375 -0.234375 1.3125 -0.625l0 -0.6875zm11.5546875 -4.21875l0 5.484375q0.515625 0 0.75 0.234375q0.25 0.21875 0.25 0.578125q0 0.34375 -0.25 0.578125q-0.25 0.21875 -0.828125 0.21875l-1.515625 0l0 -0.375q-0.6875 0.3125 -1.3125 0.46875q-0.625 0.171875 -1.1875 0.171875q-0.796875 0 -1.375 -0.328125q-0.578125 -0.34375 -0.90625 -0.9375q-0.25 -0.421875 -0.25 -1.046875l0 -3.453125l-0.265625 0q-0.578125 0 -0.828125 -0.21875q-0.25 -0.21875 -0.25 -0.578125q0 -0.359375 0.25 -0.578125q0.25 -0.21875 0.828125 -0.21875l1.875 0l0 4.765625q0 0.5 0.234375 0.75q0.25 0.234375 0.765625 0.234375q0.484375 0 1.03125 -0.1875q0.5625 -0.203125 1.390625 -0.703125l0 -3.265625l-0.578125 0q-0.578125 0 -0.828125 -0.21875q-0.25 -0.21875 -0.25 -0.578125q0 -0.359375 0.25 -0.578125q0.25 -0.21875 0.828125 -0.21875l2.171875 0zm7.0078125 -3.046875l0 8.53125l1.921875 0q0.578125 0 0.8125 0.234375q0.25 0.21875 0.25 0.578125q0 0.34375 -0.25 0.578125q-0.234375 0.21875 -0.8125 0.21875l-5.453125 0q-0.578125 0 -0.828125 -0.21875q-0.234375 -0.234375 -0.234375 -0.59375q0 -0.34375 0.234375 -0.5625q0.25 -0.234375 0.828125 -0.234375l1.921875 0l0 -6.921875l-1.28125 0q-0.578125 0 -0.828125 -0.21875q-0.25 -0.234375 -0.25 -0.59375q0 -0.34375 0.25 -0.5625q0.25 -0.234375 0.828125 -0.234375l2.890625 0zm9.3671875 0l0 1.703125l-1.90625 0l0 -1.703125l1.90625 0zm0.21875 3.046875l0 5.484375l1.921875 0q0.578125 0 0.828125 0.234375q0.25 0.21875 0.25 0.578125q0 0.34375 -0.25 0.578125q-0.25 0.21875 -0.828125 0.21875l-5.4375 0q-0.578125 0 -0.828125 -0.21875q-0.25 -0.234375 -0.25 -0.59375q0 -0.34375 0.25 -0.5625q0.25 -0.234375 0.828125 -0.234375l1.921875 0l0 -3.890625l-1.296875 0q-0.5625 0 -0.8125 -0.21875q-0.25 -0.21875 -0.25 -0.578125q0 -0.359375 0.234375 -0.578125q0.25 -0.21875 0.828125 -0.21875l2.890625 0zm7.1953125 0l0 0.53125q0.4375 -0.375 0.953125 -0.5625q0.53125 -0.1875 1.15625 -0.1875q1.421875 0 2.25 0.890625q0.65625 0.703125 0.65625 1.84375l0 2.96875q0.5 0 0.734375 0.234375q0.25 0.21875 0.25 0.578125q0 0.34375 -0.25 0.578125q-0.234375 0.21875 -0.8125 0.21875l-1.453125 0q-0.578125 0 -0.828125 -0.21875q-0.234375 -0.234375 -0.234375 -0.59375q0 -0.34375 0.234375 -0.5625q0.25 -0.234375 0.75 -0.234375l0 -3.015625q0 -0.53125 -0.28125 -0.765625q-0.359375 -0.3125 -1.09375 -0.3125q-0.5625 0 -0.984375 0.21875q-0.40625 0.203125 -1.046875 0.90625l0 2.96875q0.609375 0 0.796875 0.125q0.375 0.234375 0.375 0.6875q0 0.34375 -0.25 0.578125q-0.234375 0.21875 -0.8125 0.21875l-1.828125 0q-0.578125 0 -0.828125 -0.21875q-0.234375 -0.234375 -0.234375 -0.59375q0 -0.4375 0.375 -0.671875q0.1875 -0.125 0.796875 -0.125l0 -3.890625q-0.5 0 -0.75 -0.21875q-0.234375 -0.234375 -0.234375 -0.578125q0 -0.359375 0.234375 -0.578125q0.25 -0.21875 0.828125 -0.21875l1.53125 0zm15.2421875 4.359375l-6.578125 0q0.25 0.625 0.890625 1.015625q0.640625 0.375 1.71875 0.375q0.890625 0 2.375 -0.390625q0.609375 -0.15625 0.84375 -0.15625q0.3125 0 0.53125 0.234375q0.21875 0.21875 0.21875 0.5625q0 0.3125 -0.234375 0.53125q-0.3125 0.296875 -1.53125 0.5625q-1.203125 0.265625 -2.3125 0.265625q-1.921875 0 -3.078125 -1.09375q-1.15625 -1.09375 -1.15625 -2.671875q0 -1.6875 1.25 -2.75q1.25 -1.0625 2.875 -1.0625q0.96875 0 1.78125 0.34375q0.828125 0.34375 1.21875 0.75q0.5625 0.578125 0.9375 1.421875q0.25 0.59375 0.25 1.375l0 0.6875zm-1.78125 -1.609375q-0.359375 -0.6875 -0.953125 -1.015625q-0.59375 -0.34375 -1.421875 -0.34375q-0.8125 0 -1.40625 0.34375q-0.59375 0.328125 -0.96875 1.015625l4.75 0zm17.53125 -5.796875l0 1.703125l-1.90625 0l0 -1.703125l1.90625 0zm0.21875 3.046875l0 5.484375l1.921875 0q0.578125 0 0.828125 0.234375q0.25 0.21875 0.25 0.578125q0 0.34375 -0.25 0.578125q-0.25 0.21875 -0.828125 0.21875l-5.4375 0q-0.578125 0 -0.828125 -0.21875q-0.25 -0.234375 -0.25 -0.59375q0 -0.34375 0.25 -0.5625q0.25 -0.234375 0.828125 -0.234375l1.921875 0l0 -3.890625l-1.296875 0q-0.5625 0 -0.8125 -0.21875q-0.25 -0.21875 -0.25 -0.578125q0 -0.359375 0.234375 -0.578125q0.25 -0.21875 0.828125 -0.21875l2.890625 0zm10.5390625 1.875q-0.390625 -0.25 -0.828125 -0.359375q-0.421875 -0.125 -0.890625 -0.125q-0.921875 0 -1.46875 0.296875q-0.25 0.140625 -0.25 0.296875q0 0.171875 0.328125 0.34375q0.25 0.125 1.125 0.25q1.59375 0.21875 2.21875 0.4375q0.8125 0.28125 1.25 0.859375q0.453125 0.5625 0.453125 1.203125q0 0.859375 -0.75 1.4375q-1.09375 0.84375 -2.828125 0.84375q-0.6875 0 -1.28125 -0.125q-0.59375 -0.125 -1.078125 -0.359375q-0.125 0.09375 -0.265625 0.15625q-0.125 0.046875 -0.265625 0.046875q-0.375 0 -0.59375 -0.234375q-0.21875 -0.25 -0.21875 -0.828125l0 -0.546875q0 -0.578125 0.21875 -0.8125q0.21875 -0.25 0.578125 -0.25q0.296875 0 0.484375 0.15625q0.203125 0.15625 0.3125 0.546875q0.359375 0.3125 0.875 0.484375q0.515625 0.15625 1.1875 0.15625q1.109375 0 1.71875 -0.34375q0.28125 -0.171875 0.28125 -0.359375q0 -0.3125 -0.40625 -0.515625q-0.421875 -0.203125 -1.71875 -0.34375q-1.921875 -0.203125 -2.578125 -0.78125q-0.640625 -0.578125 -0.640625 -1.40625q0 -0.859375 0.71875 -1.4375q0.984375 -0.78125 2.578125 -0.78125q0.5625 0 1.0625 0.109375q0.515625 0.109375 0.984375 0.328125q0.15625 -0.109375 0.28125 -0.15625q0.125 -0.0625 0.234375 -0.0625q0.328125 0 0.546875 0.25q0.21875 0.234375 0.21875 0.8125l0 0.390625q0 0.53125 -0.125 0.71875q-0.25 0.359375 -0.671875 0.359375q-0.296875 0 -0.515625 -0.171875q-0.21875 -0.1875 -0.28125 -0.484375zm18.921875 5.21875l0 -0.375q-0.609375 0.3125 -1.34375 0.46875q-0.71875 0.171875 -1.3125 0.171875q-1.28125 0 -2.09375 -0.6875q-0.796875 -0.6875 -0.796875 -1.515625q0 -1.0 1.015625 -1.859375q1.03125 -0.875 2.84375 -0.875q0.734375 0 1.6875 0.15625l0 -0.375q0 -0.359375 -0.3125 -0.578125q-0.3125 -0.234375 -1.171875 -0.234375q-0.71875 0 -1.84375 0.28125q-0.421875 0.09375 -0.65625 0.09375q-0.328125 0 -0.546875 -0.21875q-0.21875 -0.234375 -0.21875 -0.59375q0 -0.203125 0.078125 -0.34375q0.078125 -0.15625 0.21875 -0.25q0.140625 -0.09375 0.578125 -0.21875q0.59375 -0.15625 1.203125 -0.25q0.625 -0.109375 1.125 -0.109375q1.5 0 2.3125 0.65625q0.828125 0.640625 0.828125 1.75l0 3.296875l0.28125 0q0.578125 0 0.8125 0.234375q0.25 0.21875 0.25 0.578125q0 0.34375 -0.25 0.578125q-0.234375 0.21875 -0.8125 0.21875l-1.875 0zm0 -2.875q-0.96875 -0.1875 -1.78125 -0.1875q-0.96875 0 -1.671875 0.484375q-0.4375 0.296875 -0.4375 0.609375q0 0.234375 0.203125 0.375q0.390625 0.25 1.078125 0.25q0.578125 0 1.296875 -0.21875q0.734375 -0.234375 1.3125 -0.625l0 -0.6875z" fill-rule="nonzero"/><path fill="#0000ff" d="m261.8199 182.86833l0 2.640625l0.96875 0q0.578125 0 0.8125 0.21875q0.25 0.21875 0.25 0.578125q0 0.359375 -0.25 0.578125q-0.234375 0.21875 -0.8125 0.21875l-2.84375 0q-0.578125 0 -0.828125 -0.21875q-0.25 -0.21875 -0.25 -0.578125q0 -0.359375 0.25 -0.578125q0.265625 -0.21875 0.828125 -0.21875l0.28125 0l0 -7.25l-0.28125 0q-0.578125 0 -0.828125 -0.21875q-0.25 -0.21875 -0.25 -0.578125q0 -0.359375 0.25 -0.578125q0.25 -0.21875 0.828125 -0.21875l1.875 0l0 0.546875q0.5625 -0.390625 1.15625 -0.578125q0.609375 -0.1875 1.25 -0.1875q1.640625 0 2.796875 1.125q1.15625 1.109375 1.15625 2.546875q0 1.578125 -1.375 2.609375q-1.140625 0.859375 -2.5625 0.859375q-0.625 0 -1.234375 -0.171875q-0.59375 -0.1875 -1.1875 -0.546875zm4.75 -2.75q0 -0.328125 -0.265625 -0.84375q-0.265625 -0.53125 -0.8125 -0.875q-0.546875 -0.34375 -1.296875 -0.34375q-1.1875 0 -1.890625 0.890625q-0.484375 0.625 -0.484375 1.1875q0 0.640625 0.6875 1.25q0.6875 0.609375 1.6875 0.609375q1.015625 0 1.6875 -0.59375q0.6875 -0.609375 0.6875 -1.28125zm8.2890625 3.640625l0 -0.375q-0.609375 0.3125 -1.34375 0.46875q-0.71875 0.171875 -1.3125 0.171875q-1.28125 0 -2.09375 -0.6875q-0.796875 -0.6875 -0.796875 -1.515625q0 -1.0 1.015625 -1.859375q1.03125 -0.875 2.84375 -0.875q0.734375 0 1.6875 0.15625l0 -0.375q0 -0.359375 -0.3125 -0.578125q-0.3125 -0.234375 -1.171875 -0.234375q-0.71875 0 -1.84375 0.28125q-0.421875 0.09375 -0.65625 0.09375q-0.328125 0 -0.546875 -0.21875q-0.21875 -0.234375 -0.21875 -0.59375q0 -0.203125 0.078125 -0.34375q0.078125 -0.15625 0.21875 -0.25q0.140625 -0.09375 0.578125 -0.21875q0.59375 -0.15625 1.203125 -0.25q0.625 -0.109375 1.125 -0.109375q1.5 0 2.3125 0.65625q0.828125 0.640625 0.828125 1.75l0 3.296875l0.28125 0q0.578125 0 0.8125 0.234375q0.25 0.21875 0.25 0.578125q0 0.34375 -0.25 0.578125q-0.234375 0.21875 -0.8125 0.21875l-1.875 0zm0 -2.875q-0.96875 -0.1875 -1.78125 -0.1875q-0.96875 0 -1.671875 0.484375q-0.4375 0.296875 -0.4375 0.609375q0 0.234375 0.203125 0.375q0.390625 0.25 1.078125 0.25q0.578125 0 1.296875 -0.21875q0.734375 -0.234375 1.3125 -0.625l0 -0.6875zm7.8203125 -4.21875l0 1.0q1.015625 -0.734375 1.59375 -0.96875q0.578125 -0.25 1.09375 -0.25q0.78125 0 1.515625 0.578125q0.5 0.390625 0.5 0.796875q0 0.34375 -0.25 0.59375q-0.234375 0.234375 -0.5625 0.234375q-0.296875 0 -0.625 -0.296875q-0.328125 -0.296875 -0.59375 -0.296875q-0.328125 0 -1.0 0.421875q-0.671875 0.421875 -1.671875 1.265625l0 2.40625l2.28125 0q0.578125 0 0.828125 0.234375q0.25 0.21875 0.25 0.578125q0 0.34375 -0.25 0.578125q-0.25 0.21875 -0.828125 0.21875l-4.828125 0q-0.578125 0 -0.828125 -0.21875q-0.25 -0.234375 -0.25 -0.59375q0 -0.34375 0.25 -0.5625q0.25 -0.234375 0.828125 -0.234375l0.953125 0l0 -3.890625l-0.578125 0q-0.578125 0 -0.828125 -0.21875q-0.25 -0.21875 -0.25 -0.578125q0 -0.359375 0.25 -0.578125q0.25 -0.21875 0.828125 -0.21875l2.171875 0zm13.9609375 4.359375l-6.578125 0q0.25 0.625 0.890625 1.015625q0.640625 0.375 1.71875 0.375q0.890625 0 2.375 -0.390625q0.609375 -0.15625 0.84375 -0.15625q0.3125 0 0.53125 0.234375q0.21875 0.21875 0.21875 0.5625q0 0.3125 -0.234375 0.53125q-0.3125 0.296875 -1.53125 0.5625q-1.203125 0.265625 -2.3125 0.265625q-1.921875 0 -3.078125 -1.09375q-1.15625 -1.09375 -1.15625 -2.671875q0 -1.6875 1.25 -2.75q1.25 -1.0625 2.875 -1.0625q0.96875 0 1.78125 0.34375q0.828125 0.34375 1.21875 0.75q0.5625 0.578125 0.9375 1.421875q0.25 0.59375 0.25 1.375l0 0.6875zm-1.78125 -1.609375q-0.359375 -0.6875 -0.953125 -1.015625q-0.59375 -0.34375 -1.421875 -0.34375q-0.8125 0 -1.40625 0.34375q-0.59375 0.328125 -0.96875 1.015625l4.75 0zm5.7421875 -2.75l0 0.53125q0.4375 -0.375 0.953125 -0.5625q0.53125 -0.1875 1.15625 -0.1875q1.421875 0 2.25 0.890625q0.65625 0.703125 0.65625 1.84375l0 2.96875q0.5 0 0.734375 0.234375q0.25 0.21875 0.25 0.578125q0 0.34375 -0.25 0.578125q-0.234375 0.21875 -0.8125 0.21875l-1.453125 0q-0.578125 0 -0.828125 -0.21875q-0.234375 -0.234375 -0.234375 -0.59375q0 -0.34375 0.234375 -0.5625q0.25 -0.234375 0.75 -0.234375l0 -3.015625q0 -0.53125 -0.28125 -0.765625q-0.359375 -0.3125 -1.09375 -0.3125q-0.5625 0 -0.984375 0.21875q-0.40625 0.203125 -1.046875 0.90625l0 2.96875q0.609375 0 0.796875 0.125q0.375 0.234375 0.375 0.6875q0 0.34375 -0.25 0.578125q-0.234375 0.21875 -0.8125 0.21875l-1.828125 0q-0.578125 0 -0.828125 -0.21875q-0.234375 -0.234375 -0.234375 -0.59375q0 -0.4375 0.375 -0.671875q0.1875 -0.125 0.796875 -0.125l0 -3.890625q-0.5 0 -0.75 -0.21875q-0.234375 -0.234375 -0.234375 -0.578125q0 -0.359375 0.234375 -0.578125q0.25 -0.21875 0.828125 -0.21875l1.53125 0zm10.8203125 1.59375l0 3.21875q0 0.515625 0.21875 0.671875q0.328125 0.265625 1.171875 0.265625q1.21875 0 2.265625 -0.53125q0.390625 -0.203125 0.625 -0.203125q0.3125 0 0.53125 0.234375q0.234375 0.234375 0.234375 0.578125q0 0.3125 -0.25 0.53125q-0.375 0.375 -1.515625 0.6875q-1.125 0.3125 -1.890625 0.3125q-1.5 0 -2.25 -0.640625q-0.734375 -0.65625 -0.734375 -1.59375l0 -3.53125l-0.578125 0q-0.578125 0 -0.828125 -0.21875q-0.25 -0.21875 -0.25 -0.578125q0 -0.359375 0.25 -0.578125q0.25 -0.21875 0.828125 -0.21875l0.578125 0l0 -1.453125q0 -0.578125 0.21875 -0.8125q0.21875 -0.25 0.578125 -0.25q0.359375 0 0.578125 0.25q0.21875 0.234375 0.21875 0.8125l0 1.453125l2.96875 0q0.578125 0 0.8125 0.21875q0.25 0.21875 0.25 0.578125q0 0.359375 -0.25 0.578125q-0.234375 0.21875 -0.8125 0.21875l-2.96875 0z" fill-rule="nonzero"/><path fill="#000000" d="m335.18707 180.33708q0 0.921875 -0.515625 1.796875q-0.515625 0.859375 -1.53125 1.375q-1.0 0.515625 -2.109375 0.515625q-1.09375 0 -2.09375 -0.5q-1.0 -0.515625 -1.53125 -1.375q-0.515625 -0.875 -0.515625 -1.828125q0 -0.953125 0.53125 -1.875q0.53125 -0.9375 1.53125 -1.46875q1.0 -0.53125 2.078125 -0.53125q1.09375 0 2.109375 0.546875q1.015625 0.546875 1.53125 1.46875q0.515625 0.90625 0.515625 1.875zm-1.609375 0.015625q0 -0.78125 -0.546875 -1.421875q-0.765625 -0.875 -2.0 -0.875q-1.078125 0 -1.8125 0.703125q-0.71875 0.6875 -0.71875 1.59375q0 0.75 0.734375 1.40625q0.734375 0.65625 1.796875 0.65625q1.078125 0 1.8125 -0.65625q0.734375 -0.65625 0.734375 -1.40625zm7.0390625 -2.09375l0 3.890625l2.28125 0q0.578125 0 0.8125 0.234375q0.25 0.21875 0.25 0.578125q0 0.34375 -0.25 0.578125q-0.234375 0.21875 -0.8125 0.21875l-4.84375 0q-0.578125 0 -0.828125 -0.21875q-0.234375 -0.234375 -0.234375 -0.59375q0 -0.34375 0.234375 -0.5625q0.25 -0.234375 0.828125 -0.234375l0.953125 0l0 -3.890625l-0.765625 0q-0.578125 0 -0.828125 -0.21875q-0.234375 -0.21875 -0.234375 -0.578125q0 -0.359375 0.234375 -0.578125q0.25 -0.21875 0.828125 -0.21875l0.765625 0l0 -0.609375q0 -1.046875 0.78125 -1.734375q0.796875 -0.703125 2.28125 -0.703125q0.671875 0 1.53125 0.125q0.875 0.125 1.125 0.34375q0.25 0.21875 0.25 0.5625q0 0.359375 -0.21875 0.59375q-0.21875 0.234375 -0.546875 0.234375q-0.140625 0 -0.4375 -0.0625q-1.0 -0.1875 -1.765625 -0.1875q-0.796875 0 -1.09375 0.234375q-0.296875 0.234375 -0.296875 0.59375l0 0.609375l2.46875 0q0.578125 0 0.8125 0.21875q0.25 0.21875 0.25 0.578125q0 0.359375 -0.25 0.578125q-0.234375 0.21875 -0.8125 0.21875l-2.46875 0zm21.171875 2.921875l-3.890625 0l-0.390625 0.96875l0.390625 0q0.578125 0 0.8125 0.234375q0.25 0.21875 0.25 0.578125q0 0.34375 -0.25 0.578125q-0.234375 0.21875 -0.8125 0.21875l-2.15625 0q-0.578125 0 -0.828125 -0.21875q-0.25 -0.234375 -0.25 -0.59375q0 -0.359375 0.265625 -0.578125q0.25 -0.234375 0.84375 -0.21875l2.515625 -6.265625l-1.046875 0q-0.578125 0 -0.828125 -0.21875q-0.234375 -0.21875 -0.234375 -0.578125q0 -0.359375 0.234375 -0.578125q0.25 -0.234375 0.828125 -0.234375l3.46875 0.015625l3.1875 7.859375q0.5625 0 0.734375 0.125q0.359375 0.265625 0.359375 0.6875q0 0.34375 -0.25 0.578125q-0.234375 0.21875 -0.8125 0.21875l-2.15625 0q-0.578125 0 -0.828125 -0.21875q-0.234375 -0.234375 -0.234375 -0.59375q0 -0.34375 0.234375 -0.5625q0.25 -0.234375 0.828125 -0.234375l0.390625 0l-0.375 -0.96875zm-0.671875 -1.609375l-1.28125 -3.171875l-1.296875 3.171875l2.578125 0zm9.1171875 -5.953125l0 8.53125l1.921875 0q0.578125 0 0.8125 0.234375q0.25 0.21875 0.25 0.578125q0 0.34375 -0.25 0.578125q-0.234375 0.21875 -0.8125 0.21875l-5.453125 0q-0.578125 0 -0.828125 -0.21875q-0.234375 -0.234375 -0.234375 -0.59375q0 -0.34375 0.234375 -0.5625q0.25 -0.234375 0.828125 -0.234375l1.921875 0l0 -6.921875l-1.28125 0q-0.578125 0 -0.828125 -0.21875q-0.25 -0.234375 -0.25 -0.59375q0 -0.34375 0.25 -0.5625q0.25 -0.234375 0.828125 -0.234375l2.890625 0zm6.7734375 0l0 3.59375q0.59375 -0.375 1.1875 -0.5625q0.609375 -0.203125 1.234375 -0.203125q1.65625 0 2.8125 1.15625q1.15625 1.140625 1.15625 2.765625q0 1.5625 -1.109375 2.609375q-1.09375 1.046875 -2.890625 1.046875q-0.640625 0 -1.234375 -0.171875q-0.59375 -0.171875 -1.15625 -0.484375l0 0.390625l-1.875 0q-0.578125 0 -0.828125 -0.21875q-0.25 -0.234375 -0.25 -0.59375q0 -0.34375 0.25 -0.5625q0.265625 -0.234375 0.828125 -0.234375l0.28125 0l0 -6.921875l-0.28125 0q-0.578125 0 -0.828125 -0.21875q-0.25 -0.234375 -0.25 -0.59375q0 -0.34375 0.25 -0.5625q0.25 -0.234375 0.828125 -0.234375l1.875 0zm4.796875 6.796875q0 -0.984375 -0.703125 -1.671875q-0.6875 -0.6875 -1.703125 -0.6875q-1.0 0 -1.703125 0.6875q-0.6875 0.6875 -0.6875 1.65625q0 0.875 0.625 1.453125q0.625 0.5625 1.765625 0.5625q1.140625 0 1.765625 -0.5625q0.640625 -0.578125 0.640625 -1.4375zm10.8515625 0.609375l-6.578125 0q0.25 0.625 0.890625 1.015625q0.640625 0.375 1.71875 0.375q0.890625 0 2.375 -0.390625q0.609375 -0.15625 0.84375 -0.15625q0.3125 0 0.53125 0.234375q0.21875 0.21875 0.21875 0.5625q0 0.3125 -0.234375 0.53125q-0.3125 0.296875 -1.53125 0.5625q-1.203125 0.265625 -2.3125 0.265625q-1.921875 0 -3.078125 -1.09375q-1.15625 -1.09375 -1.15625 -2.671875q0 -1.6875 1.25 -2.75q1.25 -1.0625 2.875 -1.0625q0.96875 0 1.78125 0.34375q0.828125 0.34375 1.21875 0.75q0.5625 0.578125 0.9375 1.421875q0.25 0.59375 0.25 1.375l0 0.6875zm-1.78125 -1.609375q-0.359375 -0.6875 -0.953125 -1.015625q-0.59375 -0.34375 -1.421875 -0.34375q-0.8125 0 -1.40625 0.34375q-0.59375 0.328125 -0.96875 1.015625l4.75 0zm7.0234375 -2.75l0 1.0q1.015625 -0.734375 1.59375 -0.96875q0.578125 -0.25 1.09375 -0.25q0.78125 0 1.515625 0.578125q0.5 0.390625 0.5 0.796875q0 0.34375 -0.25 0.59375q-0.234375 0.234375 -0.5625 0.234375q-0.296875 0 -0.625 -0.296875q-0.328125 -0.296875 -0.59375 -0.296875q-0.328125 0 -1.0 0.421875q-0.671875 0.421875 -1.671875 1.265625l0 2.40625l2.28125 0q0.578125 0 0.828125 0.234375q0.25 0.21875 0.25 0.578125q0 0.34375 -0.25 0.578125q-0.25 0.21875 -0.828125 0.21875l-4.828125 0q-0.578125 0 -0.828125 -0.21875q-0.25 -0.234375 -0.25 -0.59375q0 -0.34375 0.25 -0.5625q0.25 -0.234375 0.828125 -0.234375l0.953125 0l0 -3.890625l-0.578125 0q-0.578125 0 -0.828125 -0.21875q-0.25 -0.21875 -0.25 -0.578125q0 -0.359375 0.25 -0.578125q0.25 -0.21875 0.828125 -0.21875l2.171875 0zm9.5390625 1.59375l0 3.21875q0 0.515625 0.21875 0.671875q0.328125 0.265625 1.171875 0.265625q1.21875 0 2.265625 -0.53125q0.390625 -0.203125 0.625 -0.203125q0.3125 0 0.53125 0.234375q0.234375 0.234375 0.234375 0.578125q0 0.3125 -0.25 0.53125q-0.375 0.375 -1.515625 0.6875q-1.125 0.3125 -1.890625 0.3125q-1.5 0 -2.25 -0.640625q-0.734375 -0.65625 -0.734375 -1.59375l0 -3.53125l-0.578125 0q-0.578125 0 -0.828125 -0.21875q-0.25 -0.21875 -0.25 -0.578125q0 -0.359375 0.25 -0.578125q0.25 -0.21875 0.828125 -0.21875l0.578125 0l0 -1.453125q0 -0.578125 0.21875 -0.8125q0.21875 -0.25 0.578125 -0.25q0.359375 0 0.578125 0.25q0.21875 0.234375 0.21875 0.8125l0 1.453125l2.96875 0q0.578125 0 0.8125 0.21875q0.25 0.21875 0.25 0.578125q0 0.359375 -0.25 0.578125q-0.234375 0.21875 -0.8125 0.21875l-2.96875 0zm11.2265625 4.6875q0 0.453125 -0.328125 0.765625q-0.3125 0.3125 -0.875 0.3125q-0.5625 0 -0.890625 -0.3125q-0.3125 -0.3125 -0.3125 -0.765625q0 -0.453125 0.3125 -0.75q0.328125 -0.3125 0.890625 -0.3125q0.5625 0 0.875 0.3125q0.328125 0.296875 0.328125 0.75z" fill-rule="nonzero"/><path fill="#000000" fill-opacity="0.0" d="m370.58493 53.67061l9.647369 0l0 -8.64048l8.13385 0l0 8.64048l9.647339 0l0 8.133846l-9.647339 0l0 8.640484l-8.13385 0l0 -8.640484l-9.647369 0z" fill-rule="evenodd"/><path stroke="#000000" stroke-width="2.0" stroke-linejoin="round" stroke-linecap="butt" d="m370.58493 53.67061l9.647369 0l0 -8.64048l8.13385 0l0 8.64048l9.647339 0l0 8.133846l-9.647339 0l0 8.640484l-8.13385 0l0 -8.640484l-9.647369 0z" fill-rule="evenodd"/><path fill="#000000" fill-opacity="0.0" d="m259.19028 119.16798l4.551178 0l0 -25.480309l9.102386 0l0 25.480309l4.551178 0l-9.102356 9.102364z" fill-rule="evenodd"/><path stroke="#000000" stroke-width="2.0" stroke-linejoin="round" stroke-linecap="butt" d="m259.19028 119.16798l4.551178 0l0 -25.480309l9.102386 0l0 25.480309l4.551178 0l-9.102356 9.102364z" fill-rule="evenodd"/></g></svg>